<?xml version="1.0" encoding="UTF-8" standalone="no"?>
<!-- Created with Inkscape (http://www.inkscape.org/) -->

<svg
   version="1.1"
   id="svg1"
   width="1149.5789"
   height="649.28638"
   viewBox="0 0 1149.5789 649.28638"
   xmlns="http://www.w3.org/2000/svg"
   xmlns:svg="http://www.w3.org/2000/svg">
  <defs
     id="defs1" />
  <g
     id="g1"
     transform="translate(10.194141,-222.28258)">
    <g
       id="g7"
       transform="translate(0,232.23499)">
      <path
         id="path13"
         style="fill:#e0e0e0"
         d="M 61.40625,-5.8808594 C 53.852358,-3.116645 46.13024,-0.62099165 39.1294,3.4175489 23.860202,11.883638 11.103861,24.878639 3.1286936,40.428168 c -2.34492116,4.176525 -4.716129,8.460109 -5.6137192,13.219311 -1.6359456,7.338751 -1.9058601,14.884449 -2.3092745,22.366061 -0.8087203,18.813746 -0.8502528,37.64919 -0.9959213,56.4769 -0.2187303,38.32124 -0.1571797,76.64334 -0.1770737,114.96503 0.018705,75.35077 -0.026218,150.70167 0.1463185,226.0523 0.076106,25.17631 0.1338151,50.35477 0.6356299,75.52688 0.1579123,5.77045 0.2935055,11.55347 0.9047209,17.29674 0.7638024,5.40972 2.6340852,10.59425 4.7292326,15.6151 7.4236154,17.18287 20.6101902,31.64208 36.5505422,41.34092 7.385671,4.46171 15.406261,7.93745 23.805539,9.95478 6.223707,0.78051 12.509476,0.71367 18.768773,0.90095 22.064339,0.45236 44.134359,0.48765 66.202239,0.61477 70.20011,0.30205 140.401,0.33469 210.60164,0.38762 168.07393,0.11415 336.14792,0.10575 504.22188,0.14355 91.57825,0.0149 183.15648,0.0306 274.73478,0.0449 -0.01,-140.38267 0.031,-280.76538 -0.057,-421.14803 -0.057,-40.30516 -0.063,-80.6115 -0.5059,-120.914713 -0.1317,-9.672697 -0.2573,-19.353005 -0.8892,-29.007815 -0.2492,-3.328596 -1.015,-6.591529 -2.0642,-9.753744 -6.0523,-19.546062 -19.1255,-36.831829 -36.3242,-47.9265259 -6.7635,-4.4076587 -14.1516,-7.7967526 -21.7942,-10.3686816 -2.1466,-0.757637 -4.2674,-1.6394459 -6.4669,-2.2144705 -335.1652,0 -670.33044,0 -1005.495672,0 -0.110026,0.039714 -0.220052,0.079427 -0.330078,0.1191406 z" />
      <path
         id="path12"
         style="fill:#afafaf"
         d="M 61.40625,-5.8808594 C 53.189684,-2.8851682 44.787239,-0.15722119 37.24036,4.3552807 27.606831,9.9912858 19.129687,17.567468 12.324219,26.404297 5.6246573,35.275887 0.32339651,45.240795 -3.0450889,55.844504 -3.980058,58.844985 -4.7112836,61.939891 -4.733481,65.097755 -5.1312524,74.06355 -5.1292887,83.041301 -5.2727553,92.013619 -5.7410234,132.00586 -5.8185404,172.00131 -5.9520384,211.9957 c -0.2060501,85.55809 -0.157927,171.11689 0.1774638,256.67458 0.1297666,26.46441 0.2809347,52.92937 0.6576116,79.39154 0.1211446,5.83496 0.1602678,11.67704 0.5292164,17.50207 0.4098401,3.3294 1.6675329,6.47256 2.7442239,9.62671 2.9840284,8.20954 6.6696384,16.23731 11.8016825,23.34273 11.0517462,15.53323 27.2547932,27.2831 45.3619022,33.18955 2.562625,0.76613 5.132706,1.63192 7.822567,1.7834 6.382069,0.53344 12.792925,0.53401 19.191812,0.69196 23.164779,0.41879 46.334119,0.46919 69.501829,0.58885 79.2604,0.31463 158.52158,0.32828 237.78248,0.37903 223.43318,0.11288 446.8664,0.11068 670.29965,0.15609 25.1522,0.004 50.3044,0.008 75.4566,0.0118 -0.2351,-191.48828 -0.4738,-382.97656 -0.709,-574.464839 -3.779,-9.621398 -7.2109,-19.513739 -12.9622,-28.18667 -5.2461,-8.021206 -11.8277,-15.145569 -19.2364,-21.211704 -7.9694,-6.4218824 -17.2173,-11.2413803 -26.8449,-14.5584561 -2.7889,-0.976085 -5.5366,-2.1190633 -8.3787,-2.9123109 -335.16919,0 -670.33833,0 -1005.507472,0 -0.110026,0.039714 -0.220052,0.079427 -0.330078,0.1191406 z M 610.59766,15.146484 c 117.63839,0.07534 235.27734,0.1763 352.91434,0.798003 27.63521,0.172848 55.2714,0.318876 82.904,0.756244 4.8084,0.107935 9.6408,0.165157 14.4159,0.393022 2.4153,0.205594 4.7173,1.036616 7.0242,1.729313 19.0696,6.291902 34.822,21.905233 41.2157,40.949102 1.1449,3.423219 2.0326,6.955822 2.209,10.574338 0.4935,8.349851 0.5708,16.717836 0.7223,25.079193 0.3656,27.331841 0.4116,54.666671 0.4989,82.000471 0.1382,62.62751 0.117,125.2552 0.1401,187.88281 0.016,82.45235 0.016,164.90469 0.024,247.35704 -236.22212,-0.0532 -472.44427,-0.074 -708.66639,-0.1815 -88.37102,-0.0747 -176.74251,-0.0835 -265.11277,-0.50151 -21.04785,-0.1254 -42.097794,-0.21911 -63.140746,-0.72324 -2.776615,-0.10444 -5.69736,-0.16552 -8.512381,-0.47121 -3.903894,-0.69811 -7.659091,-2.07231 -11.294843,-3.6288 -17.079294,-7.56668 -30.56657,-22.73938 -36.227932,-40.52499 -0.539798,-1.92095 -1.21579,-3.83886 -1.302735,-5.84766 -0.0286,-0.51316 -0.09207,-1.2704 -0.119755,-1.81345 -0.393325,-8.95162 -0.532864,-17.91301 -0.706635,-26.87123 -0.571168,-37.721 -0.769121,-75.4465 -0.92946,-113.17113 -0.282788,-76.2046 -0.264702,-152.41047 0.08086,-228.61483 0.193092,-33.60179 0.364637,-67.20513 0.968606,-100.802575 0.161118,-7.189191 0.264355,-14.382757 0.645819,-21.564067 0.06937,-2.012699 0.545763,-3.966746 1.142184,-5.880991 5.997339,-19.954239 22.023557,-36.678686 41.844162,-43.219228 2.957067,-0.933629 5.977768,-1.920203 9.119259,-1.807152 17.212321,-0.528869 34.434507,-0.577608 51.652777,-0.761844 52.2708,-0.443651 104.54351,-0.595165 156.81575,-0.762895 110.55829,-0.326703 221.11719,-0.374475 331.67589,-0.371234 z m 363.27148,93.619136 c -18.40688,0.29958 -36.86981,1.5515 -54.95183,5.14938 -17.48741,3.54545 -34.70424,9.28992 -50.02518,18.56476 -13.23436,8.02472 -24.85239,18.8937 -33.08782,32.04659 -6.62569,10.51308 -11.27042,22.25716 -13.79035,34.41831 -1.7051,9.43759 -2.01433,19.05722 -2.08494,28.62603 0.002,9.13866 0.35682,18.31715 1.88618,27.34107 1.42967,7.29125 4.0669,14.30178 7.25729,20.99406 6.40552,13.17032 15.95642,24.73722 27.46417,33.76978 10.35405,8.20799 22.16078,14.42419 34.43818,19.22338 0.64315,0.26219 1.2863,0.52438 1.92946,0.78657 -11.74791,15.69974 -23.58226,31.34651 -34.65463,47.53484 -15.94976,23.12623 -31.07853,46.84238 -44.76587,71.38382 -5.49315,9.86643 -10.51112,19.98337 -15.555,30.08341 -1.66822,3.32683 -3.3358,6.65399 -5.00497,9.98035 18.02344,-0.002 36.04687,-0.007 54.07031,-0.01 3.51588,-6.83286 7.01687,-13.73631 10.71514,-20.40714 5.16058,-9.23369 10.66525,-18.27093 16.2497,-27.25301 11.10156,-17.70212 22.71388,-35.16678 34.66904,-52.33659 9.25927,-13.30996 18.81227,-26.41569 28.5013,-39.413 2.1164,-2.86082 4.2328,-5.72163 6.3492,-8.58244 5.61159,0.5865 11.2482,0.88699 16.88956,0.94947 21.87348,0.51381 43.75452,0.34143 65.63192,0.38256 0,48.88932 0,97.77864 0,146.66797 16.4447,0 32.8893,0 49.334,0 0,-123.04883 0,-246.09766 0,-369.14649 -12.3205,-2.60414 -24.6285,-5.36734 -37.1334,-6.9488 -21.3038,-2.90805 -42.83694,-4.06544 -64.33146,-3.80511 z m -828.5332,0.11329 c -23.41121,0.29856 -46.850988,2.05511 -69.907296,6.22496 -7.165855,1.35685 -14.289148,2.92431 -21.428644,4.41175 0,123.05014 0,246.10027 0,369.1504 16.444661,0 32.889323,0 49.33398,0 0,-48.81381 0,-97.62761 0,-146.44141 28.44401,-0.37109 56.88803,-0.74219 85.33204,-1.11328 5.03642,5.66367 9.2448,11.99182 13.45023,18.27875 8.89625,13.57793 17.21869,27.52377 25.29788,41.60044 11.44603,19.9634 22.26533,40.28653 32.37679,60.9585 4.37739,8.84742 8.7637,17.68639 13.14658,26.53145 13.52482,-0.0346 27.05803,0.35937 40.57618,-0.20325 2.1449,-0.20637 4.52694,-0.23958 6.26757,-1.68933 1.65129,-1.32532 2.76073,-3.56041 2.16883,-5.68421 -0.4377,-1.83078 -1.34888,-3.42896 -2.06144,-5.15138 -8.13397,-17.78714 -16.89488,-35.28587 -26.25712,-52.45865 -14.11497,-25.90875 -29.16956,-51.3069 -45.08046,-76.15406 -3.18571,-4.96991 -6.40586,-9.91812 -9.49637,-14.94818 3.45365,-1.14619 6.89702,-2.33524 10.20898,-3.85157 8.27287,-3.62727 16.28739,-7.91004 23.68616,-13.10568 8.006,-5.88883 14.76216,-13.34067 20.52457,-21.40363 7.42586,-10.49638 13.0965,-22.30237 16.1947,-34.80017 1.60633,-7.13253 1.943,-14.47018 2.24087,-21.75152 0.34282,-11.09254 0.0714,-22.23303 -1.38477,-33.24393 -1.02622,-6.96656 -3.24309,-13.6982 -5.85874,-20.21504 -5.68286,-13.85727 -14.43054,-26.45632 -25.52292,-36.53042 -12.81281,-11.7313 -28.33948,-20.20116 -44.64407,-26.01136 -13.8165,-4.94046 -28.21611,-8.17146 -42.75947,-10.04169 -15.38298,-1.94058 -30.91095,-2.45316 -46.40406,-2.35749 z m 287.30273,2.31836 c -12.91802,0.30804 -25.83595,0.62066 -38.7539,0.93164 -3.02585,30.77774 -6.16335,61.54497 -8.662,92.37099 -4.25551,51.01565 -7.75056,102.09411 -10.8355,153.19408 -1.86904,31.13103 -3.47966,62.30682 -5.10602,93.43102 -0.63303,11.76822 -1.32354,23.53314 -2.18919,35.26074 -0.0523,0.76139 -0.10432,1.52279 -0.15651,2.28418 12.12173,-0.0588 24.24618,0.12228 36.36581,-0.14788 3.44636,-0.13821 7.08994,-0.20428 10.19473,-1.89118 2.43376,-1.45406 3.86448,-4.2381 3.94412,-7.03606 0.75362,-6.35382 0.46889,-12.76426 0.69065,-19.14558 0.27272,-8.20125 0.54905,-16.59057 0.88858,-24.86144 1.52943,-37.11584 3.33846,-74.23264 5.28632,-111.32069 1.16477,-21.27119 2.28675,-42.54632 3.79776,-63.79639 0.93725,-12.87692 1.96899,-25.84446 3.04186,-38.71757 0.56123,-6.65432 1.16292,-13.2955 1.80189,-19.92891 9.0024,17.85463 17.70114,35.86101 26.41427,53.85784 18.33411,38.01345 36.39867,76.15136 54.23405,114.40914 7.4166,15.97864 14.79678,31.97586 21.90947,48.09248 1.78069,4.08686 3.5782,8.17353 5.07055,12.37487 0.79938,2.22476 2.58542,4.01903 4.78958,4.86387 2.844,1.14012 5.9719,1.02803 8.9794,1.17339 6.53671,0.10651 13.07881,0.1124 19.61297,-0.1083 2.89657,-0.14858 5.83474,-0.29118 8.64596,-1.05001 2.32618,-0.7483 4.27372,-2.71774 4.68821,-5.16807 1.05586,-3.31151 2.58672,-6.44571 3.91202,-9.65362 5.89934,-13.66132 12.1347,-27.174 18.32845,-40.70334 21.30776,-46.20636 43.02643,-92.2053 65.2825,-137.97128 6.57586,-13.46513 13.17616,-26.91909 19.98218,-40.26931 1.22252,12.49795 2.16348,24.99762 3.12655,37.53408 2.20238,29.49723 4.06691,59.04748 5.68203,88.6 1.79455,33.72287 3.24572,67.5153 4.69727,101.27454 0.57422,14.00713 1.15856,28.01458 1.6041,42.02636 0.10717,4.43551 0.0914,8.87535 0.0951,13.30916 0.0246,1.87378 1.30905,3.6482 3.14258,4.12695 1.30681,0.38768 2.66594,0.007 4.00156,0.12305 14.2293,0 28.4586,0 42.68789,0 -0.82529,-9.25818 -1.61077,-18.45184 -2.04733,-27.73903 -1.13674,-21.07654 -2.07945,-42.16314 -3.30864,-63.23386 -2.14543,-38.5837 -4.40683,-77.16251 -7.04114,-115.71585 -2.68053,-38.10922 -5.88389,-76.17782 -9.26539,-114.23028 -1.33846,-14.6226 -2.65727,-29.24906 -4.33415,-43.83702 -0.35047,-2.3958 -0.5202,-4.86968 -1.3901,-7.14792 -1.1364,-2.70213 -3.81682,-4.59003 -6.70895,-4.92026 -3.79032,-0.62734 -7.6485,-0.29069 -11.46952,-0.29124 -7.87809,0.1419 -15.75481,0.3497 -23.63204,0.53147 -8.67004,15.25653 -17.53362,30.40939 -25.6186,45.98936 -13.31495,25.25731 -25.98723,50.84444 -38.52967,76.49104 -16.50065,33.77978 -32.59392,67.75653 -48.14815,101.98208 -5.32826,11.72236 -10.49302,23.51703 -15.7485,35.2719 -5.70396,-12.31093 -11.10581,-24.75912 -16.75969,-37.1057 -21.74268,-47.94479 -44.27653,-95.53786 -68.07353,-142.50103 -12.11404,-23.88248 -24.62423,-47.573 -38.03741,-70.75512 -1.96369,-3.42821 -3.92744,-6.8564 -5.89109,-10.28464 -0.39714,0.009 -0.79427,0.0182 -1.19141,0.0273 z m 544.43555,41.75585 c 8.3648,-0.009 16.61503,0.26837 24.97488,0.84614 7.7349,0.55672 15.4236,1.17084 23.1399,1.9889 0.8434,-0.13588 0.9158,0.40635 0.811,1.10442 0,47.02604 0,94.05208 0,141.07812 -20.8464,-0.14148 -41.69784,-0.0282 -62.53866,-0.60538 -10.19178,-0.31266 -20.47234,-0.81163 -30.65894,-2.15417 -9.47578,-1.25244 -18.86933,-3.60089 -27.5383,-7.6897 -5.48737,-2.41522 -10.59332,-5.67303 -15.08438,-9.64588 -5.91592,-5.22712 -11.38144,-11.2554 -14.63483,-18.53011 -2.46133,-5.87195 -3.75735,-12.16522 -4.60436,-18.45419 -0.73435,-5.83854 -1.00553,-11.60795 -0.79005,-17.47651 0.0613,-1.77392 0.18788,-3.55519 0.32999,-5.24093 0.35391,-3.85218 0.87767,-7.6167 1.83696,-11.40634 0.43641,-1.75344 0.94785,-3.46971 1.50794,-5.10877 1.44133,-4.21754 3.33391,-8.28247 5.66486,-12.08255 0.54576,-0.89457 1.25861,-1.99201 1.92044,-2.93222 4.58067,-6.56401 10.43157,-12.20588 17.03855,-16.71036 0.76802,-0.51631 1.75802,-1.17764 2.63452,-1.71802 1.20674,-0.75318 2.25849,-1.3713 3.5284,-2.07139 5.01742,-2.77663 10.52564,-5.06345 16.09294,-6.73012 5.72491,-1.68988 11.51926,-2.785 17.4185,-3.71513 5.77353,-0.89239 11.79871,-1.51132 17.74827,-1.95023 1.67127,-0.11089 3.24884,-0.239 4.86619,-0.31616 5.47036,-0.3154 10.85994,-0.4431 16.33618,-0.47942 z m -822.3457,0.0195 c 3.06408,0.0228 6.24146,0.0825 9.23242,0.18164 5.12469,0.18493 10.12582,0.48692 15.22776,0.99445 14.03457,1.42309 28.29362,4.15212 41.37243,9.80016 2.99429,1.29919 5.92336,2.75077 8.74942,4.38507 0.9897,0.57544 2.24435,1.33407 3.20655,1.96202 6.84938,4.4026 12.92879,10.02757 17.73876,16.60439 0.62401,0.8629 1.38072,1.94813 2.00815,2.93111 4.46078,6.83516 7.26325,14.67273 8.52327,22.71947 1.08278,6.71174 1.21009,13.54741 0.80842,20.32403 -0.0666,0.95102 -0.16185,2.25642 -0.2488,3.22056 -0.53504,6.08164 -1.58289,12.13906 -3.44651,17.96108 -0.43344,1.35149 -0.99323,2.90392 -1.56592,4.30177 -2.10094,5.21338 -5.17211,10.27337 -8.85791,14.34081 -1.21778,1.34285 -2.49877,2.62866 -3.84961,3.83789 -0.34196,0.2928 -0.7713,0.68489 -1.18532,1.02801 -7.55349,6.37085 -16.76345,10.4194 -26.13308,13.31919 -5.18599,1.58874 -10.47249,2.83714 -15.80074,3.84421 -1.10735,0.20431 -2.46468,0.43459 -3.67466,0.6115 -7.73074,1.09055 -15.50296,1.32903 -23.30486,1.64636 -18.88331,0.61534 -37.88158,0.7455 -56.8158,1.04135 -4.4595,0.0636 -8.91901,0.126 -13.37851,0.18907 0,-47.45443 0,-94.90886 0,-142.36328 6.25556,-0.65039 12.58469,-1.08569 18.82227,-1.56446 10.84947,-0.78377 21.66964,-1.35529 32.57227,-1.3164 z" />
      <path
         id="path11"
         style="fill:#8f8f8f"
         d="m 412.79102,-5.9882812 c -90.04806,0.047563 -180.09645,0.00971 -270.14404,0.3410168 -23.74994,0.1130518 -47.502637,0.1753288 -71.247278,0.7314743 -4.608383,0.1607574 -9.234877,0.2689522 -13.811811,0.8552432 -3.955558,0.7408627 -7.681342,2.3440116 -11.363619,3.91663496 C 34.172997,5.3020047 23.44165,13.515349 14.695312,23.40625 9.7990031,29.002768 5.6623282,35.265374 2.5024736,41.999165 c -2.31643151,4.36667 -4.5055376,8.901812 -5.3197202,13.821997 -1.5232771,7.663687 -1.7611175,15.500181 -2.1407451,23.282283 -0.7681944,20.115277 -0.7899918,40.249715 -0.9172625,60.376905 -0.1893052,42.82593 -0.1120651,85.65243 -0.1305258,128.47863 0.021374,67.16692 -0.045486,134.3339 0.061682,201.50075 0.060028,24.47218 0.124935,48.94859 0.7663631,73.41332 0.2741506,8.69034 0.6008375,17.40053 1.7654583,26.02432 0.7497709,5.18029 2.2116295,10.30279 4.7875617,14.88365 2.6921843,5.31291 5.2424526,10.76585 8.9711659,15.4562 4.661251,6.07856 10.175376,11.4528 15.954538,16.45849 7.653333,6.47389 16.448409,11.6606 25.988588,14.80119 4.480375,1.55475 9.11065,2.7868 13.860909,3.08512 7.129353,0.57178 14.287793,0.59891 21.434415,0.77984 22.590269,0.40815 45.185109,0.44131 67.778249,0.54679 64.86289,0.24085 129.72635,0.24132 194.58958,0.28399 241.27122,0.0922 482.54245,0.0891 723.81367,0.13287 20.5225,0.003 41.0451,0.006 61.5676,0.008 -0.01,-144.06171 0.024,-288.12344 -0.042,-432.18515 -0.054,-37.19956 -0.025,-74.40058 -0.4736,-111.598049 -0.1366,-8.647817 -0.279,-17.305181 -0.9715,-25.929229 -0.5688,-5.873469 -2.2514,-11.57135 -4.2511,-17.100631 -2.9624,-8.044679 -7.2744,-15.594109 -12.7839,-22.167504 -5.331,-6.485237 -11.4179,-12.356369 -18.0866,-17.4551835 -7.7765,-5.8123392 -16.5978,-10.3261985 -26.0124,-12.7732335 -3.0137,-0.623033 -6.1367,-0.6190503 -9.1341,-0.8296566 -13.2635,-0.5298842 -26.5404,-0.5754423 -39.8122,-0.7226181 C 984.99521,-5.7373465 946.22235,-5.7767934 907.45001,-5.8545814 792.93368,-6.0127162 678.41719,-5.9764428 563.90078,-5.997418 c -50.36992,0.00305 -100.73984,0.00609 -151.10976,0.00914 z M 265.94531,15.496094 c 189.5986,0.04408 379.19712,0.228006 568.79568,0.347769 75.40209,0.05204 150.80418,0.104091 226.20631,0.156137 6.756,2.433493 13.6502,4.70995 19.795,8.508397 9.5443,5.691154 17.6116,13.832574 23.1679,23.460353 0.2657,0.479912 0.7152,1.251195 1.0323,1.853312 1.2103,2.232431 2.2931,4.578827 3.2338,6.848755 1.3606,3.374481 2.5233,6.826014 3.7651,10.243245 0.1514,1.611346 0.016,3.248217 0.065,4.869919 0.2283,180.294009 0.4565,360.588019 0.6848,540.882039 -253.53866,-0.0567 -507.07734,-0.10343 -760.61601,-0.17697 -67.65127,-0.0508 -135.30309,-0.0488 -202.9535,-0.43594 -21.23441,-0.14414 -42.47058,-0.33005 -63.698062,-0.91834 -4.665205,-0.14281 -9.512316,-0.33575 -14.140952,-0.65304 -4.200006,-0.329 -8.488283,-0.47431 -12.529762,-1.77177 -2.159169,-0.80361 -4.18753,-1.91995 -6.298786,-2.83926 -2.622694,-1.30336 -5.221404,-2.88322 -7.528547,-4.52109 -7.398802,-5.27391 -13.635136,-12.09559 -18.604207,-19.68024 -2.36967,-3.67989 -4.38889,-7.58295 -6.04423,-11.63421 -0.280104,-0.68567 -0.659032,-1.65973 -0.955078,-2.46289 -0.557084,-1.67662 -1.250451,-3.25346 -1.801959,-4.8686 -0.38204,-1.16402 -0.09951,-2.42627 -0.186323,-3.63336 0,-164.43685 0,-328.8737 0,-493.310544 2.245814,-5.965016 4.349431,-12.053872 7.781312,-17.469171 1.893486,-3.141326 4.146714,-6.330764 6.548766,-9.226142 1.267287,-1.522907 2.54901,-2.954327 3.891765,-4.330904 5.334795,-5.455763 11.50263,-10.190258 18.477202,-13.352374 2.692679,-1.221698 5.343208,-2.665382 8.304675,-3.119308 7.338451,-1.128333 14.77712,-1.305322 22.18378,-1.603664 25.133706,-0.737286 50.450536,-0.82063 75.658206,-0.96875 35.25505,-0.149436 70.51033,-0.157753 105.76562,-0.193359 z m -115.1289,93.363286 c -22.48084,0.25692 -44.96929,1.70225 -67.236371,4.85367 -7.72395,1.11198 -15.368018,2.69716 -22.978992,4.40559 -2.200355,0.4754 -4.401024,0.94935 -6.601047,1.42628 0,123.04037 0,246.08073 0,369.1211 16.444661,0 32.889323,0 49.33398,0 0,-48.88998 0,-97.77995 0,-146.66993 24.64154,-0.042 49.29499,0.22323 73.92356,-0.72001 3.87041,-0.19033 7.73243,-0.50471 11.59793,-0.77217 6.24404,8.41308 12.3114,16.96171 17.9677,25.78319 13.62225,21.08142 25.96268,42.96328 37.72244,65.12874 9.8972,18.75515 19.28058,37.77391 28.8711,56.68627 0.11367,0.80715 0.89967,0.5221 1.48446,0.56391 11.67412,-0.0498 23.3512,0.1255 35.02305,-0.14849 2.82017,-0.10814 5.83758,-0.23943 8.29591,-1.78061 2.71269,-1.80284 3.82322,-5.61883 2.42468,-8.57595 -2.15238,-6.04726 -5.01227,-11.80876 -7.77904,-17.59071 -8.10462,-16.5525 -16.97104,-32.71761 -25.96137,-48.80148 -11.27485,-20.09493 -22.97121,-39.95693 -35.27203,-59.4431 -3.91729,-6.19083 -8.00297,-12.27337 -11.96221,-18.43717 -0.3274,-0.52722 -0.65642,-1.05346 -0.96899,-1.58968 11.1046,-3.98839 22.21419,-8.53111 31.7183,-15.65815 7.44013,-5.5839 13.99605,-12.26289 20.00631,-19.3399 7.4038,-8.92258 13.25166,-19.20378 16.62238,-30.3224 3.38755,-10.87248 4.96155,-22.24385 5.44893,-33.59888 0.70113,-19.33923 -2.77713,-38.9975 -11.29201,-56.45372 -5.18024,-10.63741 -12.35872,-20.28354 -21.02653,-28.33453 -13.06052,-12.37322 -29.01762,-21.45659 -45.9494,-27.39062 -17.88121,-6.35256 -36.71129,-9.59764 -55.55274,-11.41144 -9.26182,-0.80304 -18.56683,-0.98262 -27.86,-0.92981 z m 824.14062,0.0371 c -22.42155,0.28575 -44.95443,2.23932 -66.7276,7.80919 -17.90458,4.59509 -35.38036,11.89235 -50.04654,23.30696 -12.39563,9.66067 -22.48824,22.32896 -28.79229,36.74742 -5.58202,12.76992 -8.4437,26.60148 -9.48576,40.45936 -0.96099,13.44978 -0.16673,27.07068 2.82054,40.23463 2.32187,10.21371 6.19742,20.15563 12.1146,28.83898 7.28224,10.82024 16.89299,19.93674 27.50439,27.45384 9.38872,6.61077 19.713,11.85354 30.51305,15.73556 -6.41228,9.36058 -13.46709,18.25697 -20.06727,27.48149 -13.73606,18.97049 -26.86263,38.38415 -39.32711,58.21374 -9.97444,15.96924 -19.32124,32.32818 -28.10848,48.97799 -2.13533,4.17858 -4.36691,8.31776 -6.2242,12.63002 -0.79135,1.9423 -1.6024,4.12175 -0.83632,6.20546 0.74888,2.41444 2.94703,4.19992 5.40908,4.6456 3.7995,0.91564 7.74164,0.79577 11.62087,0.93973 10.30366,0.1923 20.60962,0.0334 30.91429,0.0896 7.92038,-14.75627 16.18427,-29.33187 24.99837,-43.57428 17.46083,-28.36967 36.2366,-55.86155 56.05669,-82.63019 5.39876,-7.27535 10.79736,-14.55131 16.19885,-21.82483 6.23128,0.57028 12.48112,0.92691 18.73879,0.99838 21.25271,0.48942 42.51252,0.34284 63.76902,0.36295 0,48.88932 0,97.77864 0,146.66797 16.4447,0 32.8893,0 49.334,0 0,-123.02344 0,-246.04688 0,-369.07032 -10.7072,-2.37979 -21.4342,-4.74438 -32.3145,-6.1972 -20.6501,-2.94609 -41.5083,-4.35719 -62.36325,-4.50983 -1.89974,0.003 -3.79948,0.005 -5.69922,0.008 z m -282.11328,2.4336 c -1.19166,0.0258 -2.16985,0.91289 -2.5459,2.00294 -7.60646,13.04343 -15.21279,26.09207 -22.27713,39.43994 -15.99911,29.82727 -31.04311,60.1565 -45.83614,90.59699 -19.46552,40.14239 -38.19448,80.63851 -56.32087,121.40289 -1.08221,2.4048 -2.17127,4.80671 -3.28363,7.19786 -6.40887,-13.61462 -12.41978,-27.40825 -18.7329,-41.06627 -21.75903,-47.56913 -44.18488,-94.841 -67.81596,-141.51153 -10.37788,-20.44642 -20.96631,-40.79383 -32.34092,-60.70689 -3.3498,-5.82104 -6.79972,-11.58284 -10.23718,-17.35203 -9.42008,0.0381 -18.84276,-0.0883 -28.26101,0.10667 -3.00303,0.16404 -6.31788,0.33804 -8.72141,2.37576 -1.84767,1.53883 -2.86147,3.87324 -3.0777,6.23627 -0.95393,5.78712 -1.40024,11.64214 -2.02768,17.47032 -3.13176,31.24386 -5.70813,62.54282 -8.29261,93.83557 -2.4003,29.45941 -4.5255,58.94051 -6.31202,88.44345 -2.29766,36.94116 -4.4271,73.89351 -6.33461,110.85592 -0.72691,14.20715 -1.3526,28.38935 -2.29201,42.57101 -0.39057,5.15396 -0.86285,10.27505 -1.29423,15.43707 16.32422,0 32.64844,0 48.97266,0 0.82968,-6.74221 1.77435,-13.48324 1.97348,-20.28274 0.93959,-18.11469 1.3061,-36.25289 2.14617,-54.372 1.82865,-44.37642 4.0712,-88.71381 6.7604,-133.03574 1.15387,-18.86629 2.51265,-37.6965 4.10354,-56.53863 0.64692,-7.94827 1.27617,-15.83983 2.01836,-23.78261 7.49655,14.86661 14.7399,29.85958 21.99473,44.84537 17.51681,36.28609 34.71006,72.72726 51.79545,109.22739 9.16087,19.64563 18.28091,39.34692 27.13952,59.14444 2.34093,5.3253 4.77443,10.62018 6.82217,16.06635 0.38069,1.63152 1.02154,3.30937 2.44735,4.3102 2.24565,1.74195 5.21287,1.73154 7.90714,2.02151 8.65059,0.61174 17.32991,0.32356 25.99442,0.39771 2.40977,-3.9e-4 4.81954,-10e-4 7.2293,-10e-4 8.11759,-19.8713 17.22173,-39.31684 26.16456,-58.82467 18.86709,-40.88139 38.08721,-81.57379 57.61268,-122.14434 8.8026,-18.23193 17.71708,-36.4114 26.93175,-54.4392 1.92215,21.15336 3.58035,42.31826 5.05664,63.51367 1.56954,23.08203 2.79398,46.24234 4.01066,69.36371 2.03225,39.90328 4.0187,79.81055 5.50663,119.73846 0.33325,8.62709 0.60378,17.18009 0.58216,25.82049 -0.0138,2.9906 -0.009,5.98125 -0.01,8.97188 16.55078,0 33.10156,0 49.65234,0 -0.48905,-6.18342 -1.05271,-12.2806 -1.43359,-18.45313 -1.30947,-22.96221 -2.28169,-46.13226 -3.58662,-69.17159 -2.83191,-51.55396 -6.05619,-103.08837 -9.89594,-154.57648 -2.39941,-31.57415 -5.21998,-63.11483 -8.16507,-94.64227 -1.02095,-10.40989 -1.93062,-20.83298 -3.19766,-31.21611 -0.25708,-2.4003 -1.01677,-4.88939 -2.88485,-6.53475 -2.4182,-2.21577 -5.8783,-2.4866 -8.99912,-2.60617 -6.61254,-0.21942 -13.23098,-0.094 -19.84613,-0.1327 -2.93289,10e-4 -5.86828,0.002 -8.79961,-0.003 z m 282.33984,41.39453 c 8.35261,0.0136 16.57263,0.316 24.87931,0.85512 6.2416,0.39844 12.4646,0.93109 18.73,1.53098 2.3684,0.24299 4.8037,0.45169 7.2071,0.77015 0,47.36328 0,94.72656 0,142.08984 -23.2805,-0.13373 -46.62962,-0.0601 -69.86328,-0.75195 -3.77853,-0.13306 -7.70485,-0.23548 -11.38867,-0.45898 -9.64009,-0.60721 -19.21682,-2.32154 -28.4642,-5.11283 -4.46325,-1.37528 -8.84304,-3.03288 -13.05924,-5.04538 -0.36164,-0.18438 -1.07668,-0.53143 -1.57358,-0.77808 -7.07807,-3.58477 -13.68969,-8.29519 -18.75629,-14.45355 -3.28307,-3.94088 -5.97718,-8.38213 -7.86935,-13.15313 -0.48417,-1.22067 -1.01744,-2.67681 -1.43219,-4.02035 -3.28851,-10.54753 -3.64905,-21.74333 -3.11534,-32.69997 0.21334,-4.24769 0.64917,-8.48721 1.39128,-12.67617 0.1877,-0.98474 0.41413,-2.23315 0.67265,-3.31107 1.6378,-7.21184 4.74621,-14.12222 9.32149,-19.9526 0.38554,-0.49027 0.97181,-1.24227 1.44917,-1.81689 1.82339,-2.22518 3.92093,-4.44369 5.91411,-6.36084 4.17008,-4.02675 8.80944,-7.57385 13.87958,-10.3946 9.67021,-5.45159 20.41219,-8.73629 31.27081,-10.83197 0.6943,-0.12313 1.63975,-0.31212 2.32596,-0.42851 9.88376,-1.74053 20.16549,-2.59757 30.33582,-2.87963 2.64129,-0.0735 5.44571,-0.11068 8.14486,-0.11959 z m -817.78711,0.23242 c 2.94094,0.0164 6.02616,0.0965 8.87305,0.22656 6.3555,0.31362 12.59586,0.83993 18.93142,1.64691 1.8374,0.23432 3.64951,0.50758 5.38108,0.76911 1.75177,0.28162 3.30882,0.55556 5.05274,0.87891 0.92508,0.18422 2.12432,0.41091 3.15112,0.63557 12.42063,2.63787 24.72241,6.78503 35.33405,13.89917 10.28943,6.83341 18.62513,16.72201 23.19734,28.22919 1.15348,3.06605 2.08183,6.43417 2.71983,9.5095 1.57174,7.7912 2.06183,15.78053 1.73047,23.71485 -0.0326,0.49613 -0.0678,1.3465 -0.11554,1.97956 -0.17009,2.71291 -0.47195,5.53988 -0.85412,8.06945 -0.33033,2.20526 -0.70865,4.2219 -1.2044,6.38912 -1.48045,6.61028 -4.04714,13.01748 -7.93626,18.58794 -5.01108,7.37346 -12.04995,13.23844 -19.94103,17.32322 -7.6655,4.01703 -15.99182,6.60952 -24.4174,8.47883 -1.2654,0.26645 -2.76865,0.58701 -4.13293,0.84343 -1.98509,0.37253 -3.9325,0.7118 -5.86667,1.00532 -3.82833,0.57847 -7.68416,1.06689 -11.48053,1.42678 -7.89698,0.70469 -15.86094,0.84133 -23.74614,1.08291 -19.57586,0.47279 -39.15889,0.32952 -58.73858,0.34664 0,-47.4043 0,-94.80859 0,-142.21289 4.09036,-0.66022 7.9937,-0.88884 12.11495,-1.24461 6.19817,-0.46962 12.41347,-0.78113 18.66542,-1.07138 7.73921,-0.28877 15.49545,-0.52909 23.28213,-0.51409 z" />
      <path
         id="path10"
         style="fill:#6d6d6d"
         d="M 62.630859,-5.8964844 C 54.541451,-3.1826622 46.271245,-0.70176328 38.825675,3.5722381 28.841932,9.1937685 20.277051,17.058886 12.921455,25.784756 6.7096548,33.292927 1.837005,41.925589 -1.1760709,51.20261 -2.9989029,56.530107 -4.3370961,62.050585 -4.713051,67.681745 -5.3001971,75.413403 -5.342865,83.173395 -5.5091176,90.922447 -5.8033313,109.79096 -5.8255252,128.66244 -5.88759,147.53278 -6.0393235,215.62174 -5.985283,283.71093 -5.9952105,351.8 c 0.020004,52.96156 -0.034324,105.92356 0.2295343,158.88463 0.1083931,15.47529 0.1386323,30.9581 0.8262231,46.42084 0.2626584,5.15897 0.87702,10.33122 2.3952426,15.28522 2.77999557,10.13513 7.4277012,19.81535 14.0536525,28.0057 5.623728,7.09238 12.157288,13.48601 19.457599,18.8434 9.412246,6.83061 20.223088,11.86004 31.665771,14.08443 7.399225,0.72131 14.843067,0.67092 22.268146,0.84552 25.351722,0.41475 50.707502,0.47462 76.061872,0.59385 79.16422,0.29855 158.32913,0.3235 237.49381,0.37878 222.15909,0.12274 444.31823,0.12283 666.47736,0.17798 23.4666,0.004 46.9333,0.01 70.4,0.0136 -0.017,-136.46939 0.014,-272.93882 -0.087,-409.40819 -0.063,-43.38822 -0.064,-86.77769 -0.5334,-130.163899 -0.1352,-9.967508 -0.2653,-19.941584 -0.8668,-29.893244 -0.4477,-5.965988 -2.2269,-11.735776 -4.3121,-17.31113 -8.204,-21.220795 -25.0539,-38.8922559 -45.7717,-48.25550041 -5.2969,-2.41304179 -10.8648,-4.13796479 -16.3847,-5.95115869 -1.4139,-0.5667872 -2.9459,-0.2860125 -4.4287,-0.3508279 -333.33671,0 -666.67343,0 -1000.010147,0 -0.102864,0.034505 -0.205729,0.06901 -0.308594,0.1035156 z m 6.705079,21.8867184 c 42.060732,0.02284 84.122752,0.0032 126.183982,0.0098 288.48815,0 576.9763,0 865.46448,0 6.3418,2.209218 12.8594,4.153717 18.6377,7.668191 13.1209,7.60207 23.4721,19.752022 29.1434,33.794993 1.0692,2.822724 2.2303,5.612035 3.2345,8.458691 0.2324,182.248041 0.4648,364.496091 0.6973,546.744141 -198.40381,-0.0567 -396.80759,-0.10515 -595.21136,-0.18954 -105.05954,-0.0593 -210.11906,-0.18877 -315.17834,-0.43385 -42.2799,-0.12417 -84.56037,-0.20877 -126.839106,-0.56144 -2.608873,-0.0702 -5.237241,0.0186 -7.831838,-0.24665 -17.636333,-3.73719 -33.40648,-15.29232 -42.389596,-30.90959 -2.438489,-4.17941 -4.449871,-8.80208 -5.825185,-13.32886 -0.748771,-2.56348 -1.546134,-5.16469 -1.489302,-7.86488 -0.343277,-8.89342 -0.391281,-17.90403 -0.52735,-26.85175 -0.440932,-37.74357 -0.550657,-75.48999 -0.676049,-113.23562 -0.216898,-76.7502 -0.190516,-153.50106 0.03792,-230.2512 0.133573,-34.5934 0.2624,-69.1878 0.743841,-103.778426 0.107495,-5.907663 0.165311,-11.819523 0.445636,-17.721462 0.174286,-2.491488 0.994298,-4.873137 1.705541,-7.249779 0.289797,-0.891009 0.724484,-2.1185 1.064888,-3.004551 6.83082,-17.77753 21.837933,-32.157434 39.835994,-38.347621 2.538661,-0.903044 5.098643,-1.759251 7.642087,-2.640016 0.37391,-0.06186 0.752799,-0.06722 1.13086,-0.06055 z M 966.69922,109.48438 c -14.27585,0.11607 -28.65272,0.62655 -42.65798,3.62296 -8.96849,1.84376 -17.88958,3.99022 -26.60487,6.81096 -16.19846,5.31551 -31.73926,13.2758 -44.46687,24.73794 -11.38042,10.22596 -20.23941,23.21558 -25.64092,37.52869 -5.60563,14.70257 -7.98537,30.50893 -7.95434,46.20411 0.1051,16.91163 3.387,33.96675 10.79799,49.23913 3.99446,8.22679 9.35188,15.80065 15.89858,22.19576 9.49926,9.49737 20.60987,17.31366 32.50422,23.51708 4.69481,2.41354 9.55107,4.5116 14.51677,6.30157 -9.19035,12.84462 -18.94702,25.2797 -27.96713,38.24447 -17.02524,24.14108 -33.10433,48.96542 -47.80098,74.59578 -6.51342,11.47988 -12.71393,23.14988 -18.19064,35.16251 -0.85586,1.8576 -1.66403,4.02771 -0.82641,6.04021 0.87621,2.45771 3.3686,4.05074 5.92053,4.20729 5.25542,0.67803 10.56924,0.6547 15.85893,0.74262 8.66837,0.0675 17.33715,0.01 26.0057,0.0306 4.80097,-8.80772 9.66254,-17.68585 14.66601,-26.31641 17.61095,-30.03044 36.89133,-59.05873 57.16754,-87.34966 8.30823,-11.52599 16.82764,-22.89896 25.30121,-34.30268 0.43776,-0.31715 1.16106,0.0355 1.71218,-0.0181 6.48181,0.55682 12.98171,0.86606 19.48654,0.95749 20.52149,0.46604 41.04962,0.33918 61.57472,0.36135 0,48.88932 0,97.77864 0,146.66797 16.4518,0 32.9036,0 49.3555,0 -0.2343,-122.89714 -0.4656,-245.79428 -0.7012,-368.69141 -10.9735,-2.55301 -21.9148,-5.3794 -33.1078,-6.81571 -23.2966,-3.28027 -46.87304,-3.77089 -70.366,-3.70329 -1.49376,0.01 -2.98752,0.0192 -4.48128,0.0288 z m -823.50586,0.0469 c -12.62529,0.16054 -25.26068,0.42862 -37.85093,1.42828 -10.665729,1.04595 -21.234758,2.87632 -31.777242,4.76897 -4.528317,0.86358 -9.069722,1.73924 -13.493054,3.04557 -1.365305,0.47668 -2.757263,1.07777 -3.836086,2.0368 -1.626458,2.9286 -1.259954,6.3757 -1.399161,9.5941 -0.415643,19.90339 -0.455044,39.81209 -0.576426,59.71878 C 53.906945,262.32127 54.024247,334.51988 54,406.71797 c 0,27.31601 0,54.63203 0,81.94805 16.444661,0 32.889323,0 49.33398,0 0,-48.89454 0,-97.78907 0,-146.6836 24.68762,-0.10518 49.38654,0.0885 74.06071,-0.85089 3.97138,-0.19409 7.93167,-0.56209 11.89047,-0.92645 9.47088,14.26154 19.12436,28.43369 28.00652,43.05281 11.86072,19.35902 22.94155,39.14804 33.40817,59.28057 7.89935,15.28526 15.4015,30.73494 23.08531,46.12756 17.06966,0 34.13932,0 51.20898,0 -4.84715,-11.39604 -9.65732,-22.82034 -15.25179,-33.87576 -11.3888,-22.98417 -23.96825,-45.35677 -36.93123,-67.48406 -9.9775,-16.93616 -20.36254,-33.62932 -31.0824,-50.10537 -1.03523,-1.61651 -2.07474,-3.23021 -3.09981,-4.85317 5.76256,-2.02733 11.30567,-4.62499 16.80078,-7.2793 6.73616,-3.35219 13.41071,-6.96923 19.2602,-11.74606 15.91525,-12.86671 28.00217,-30.59266 33.54646,-50.34018 3.80976,-13.99596 4.79834,-28.6676 3.73717,-43.10355 -1.14964,-15.12637 -4.44123,-30.25083 -11.09151,-43.95333 -6.09307,-12.23153 -15.06213,-22.91587 -25.55093,-31.62065 -13.18771,-10.90861 -28.74512,-18.64855 -44.91721,-24.05856 -12.96319,-4.34233 -26.35916,-7.35179 -39.89507,-9.22863 -13.07089,-1.62977 -26.26962,-1.40948 -39.41489,-1.51816 -2.63694,-0.01 -5.27371,0.014 -7.91055,0.032 z m 251.78906,3.4043 c -0.95075,4.51562 -1.91111,9.09085 -2.27682,13.72316 -2.30058,21.24094 -4.18836,42.52402 -6.12541,63.80103 -2.6153,29.26152 -4.96013,58.5488 -6.94736,87.85951 -3.32782,47.7538 -6.17831,95.54116 -8.66517,143.34489 -0.86981,17.0543 -1.62346,34.08652 -2.67632,51.11661 -0.37478,5.23827 -0.941,10.59807 -1.41439,15.88527 16.33724,0 32.67448,0 49.01172,0 0.86467,-8.16502 1.74266,-16.33633 2.00694,-24.54777 0.89452,-18.8993 1.32181,-37.81712 2.19321,-56.7175 1.83874,-44.46296 4.16991,-88.87119 7.01034,-133.27587 1.5061,-23.09176 3.07589,-46.16299 5.2437,-69.19025 0.14237,-1.52143 0.29935,-3.04134 0.45402,-4.56158 7.99525,15.82351 15.70251,31.79068 23.42879,47.74693 17.49828,36.28456 34.71134,72.68261 51.75019,109.18675 8.99336,19.31541 17.93951,38.65393 26.59641,58.12296 2.07164,4.74325 4.23006,9.53128 6.03138,14.41384 0.36441,1.0682 0.46267,2.24976 1.26453,3.11615 1.58376,2.11148 4.27871,2.93316 6.80955,3.11454 7.31697,0.80706 14.6927,0.5342 22.03945,0.56551 3.21331,-0.0459 6.47023,-0.0654 9.61876,-0.77254 2.75895,-0.697 5.15849,-2.66927 6.26621,-5.30625 9.47387,-22.23807 19.6556,-44.16796 29.79535,-66.10902 20.18455,-43.51366 40.74137,-86.85504 61.67825,-130.01165 5.56425,-11.42499 11.15516,-22.83762 16.90081,-34.17269 1.3785,14.08182 2.41445,28.20014 3.42188,42.29883 2.93148,42.16323 5.26078,84.33908 7.31147,126.54457 1.93649,39.84132 3.45986,79.70093 5.10259,119.55504 16.24479,0 32.48958,0 48.73438,0 -0.55615,-6.4001 -1.12968,-12.67278 -1.48633,-19.08985 -1.45508,-27.24723 -2.67072,-54.61018 -4.26742,-81.88847 -2.79473,-49.62911 -5.94248,-99.2393 -9.7282,-148.80248 -2.70317,-34.41436 -5.83522,-68.79411 -9.19502,-103.14983 -0.59298,-5.50915 -1.0805,-11.03515 -1.92798,-16.51278 -0.43562,-2.62957 -0.87986,-5.25724 -1.30521,-7.88863 -13.40755,0 -26.81511,0 -40.22266,0 -8.57323,14.91185 -17.18205,29.80872 -25.18039,45.04009 -16.91549,31.82523 -32.86451,64.15483 -48.54064,96.60556 -18.85158,39.12301 -37.03285,78.5668 -54.60027,118.28334 -0.24794,0.7135 -0.4986,1.2486 -0.77297,0.23161 -6.60157,-13.73923 -12.70207,-27.67144 -19.09502,-41.516 -20.97718,-45.81661 -42.56784,-91.35751 -65.21113,-136.37636 -10.60256,-21.04711 -21.46406,-41.9708 -33.11547,-62.45911 -3.71233,-6.60664 -7.4368,-13.20599 -11.15794,-19.80913 -12.81119,0 -25.62239,0 -38.43359,0 -0.10807,0.53386 -0.21615,1.06771 -0.32422,1.60157 z m -242.1914,39.73047 c 6.14888,0.0294 12.1911,0.16709 18.32839,0.57287 1.98934,0.13424 3.84763,0.28469 5.83762,0.45252 1.35722,0.13074 2.95338,0.27408 4.39931,0.44317 11.79899,1.31408 23.55921,3.57647 34.73546,7.65253 1.39412,0.51841 2.99139,1.13937 4.44106,1.75683 1.97248,0.83901 3.9943,1.77414 5.81018,2.71012 7.63894,3.84573 14.59962,9.08278 20.21283,15.55112 2.98095,3.35665 6.00458,6.76291 8.13358,10.74365 1.53026,2.89448 2.67307,6.16781 3.58594,9.18164 4.02663,13.46573 4.62538,27.83841 2.45899,41.68945 -0.0735,0.38763 -0.20813,1.18255 -0.30503,1.72608 -1.75407,9.5548 -5.43387,18.93548 -11.74436,26.41917 -6.29648,7.61116 -14.86651,13.02804 -23.94529,16.72817 -5.41897,2.20555 -11.04291,3.87954 -16.7397,5.19689 -1.8622,0.42285 -3.9283,0.86253 -5.8841,1.22245 -4.85726,0.9003 -9.91507,1.39344 -14.75652,1.71701 -12.47449,0.73638 -24.89609,0.91713 -37.39477,1.134 -15.54338,0.22365 -31.08705,0.42577 -46.63063,0.63553 0,-47.51107 0,-95.02214 0,-142.5332 1.658,-0.23913 3.11778,-0.40885 4.78093,-0.5846 7.73202,-0.7563 15.5601,-1.25142 23.26986,-1.68884 5.13728,-0.26094 10.31251,-0.50962 15.3937,-0.62661 2.00372,-0.058 4.00808,-0.0855 6.01255,-0.1 z m 823.71289,0 c 3.0715,0.0357 6.14246,0.0984 9.21289,0.1875 4.08073,0.13483 8.34459,0.32023 12.49248,0.5545 5.00242,0.2733 10.16952,0.62537 15.12662,0.98651 3.3007,0.268 6.5627,0.51657 9.8044,0.89791 0.9551,0.10637 1.9076,0.23668 2.8597,0.36576 0,47.4375 0,94.875 0,142.3125 -24.1903,-0.1385 -48.38682,-0.0404 -72.56836,-0.80664 -4.04789,-0.1686 -8.2697,-0.27007 -12.37289,-0.62177 -2.07518,-0.21196 -3.98792,-0.41685 -6.06687,-0.71638 -12.05731,-1.69589 -24.08208,-4.76581 -34.86665,-10.54869 -7.9107,-4.23477 -15.06486,-10.08688 -20.14887,-17.53329 -4.85656,-6.92551 -7.64126,-15.11826 -8.89998,-23.43717 -0.29467,-1.90499 -0.53169,-3.93465 -0.68374,-5.74259 -0.0813,-0.86695 -0.12786,-1.73467 -0.18952,-2.56612 -0.2664,-4.19412 -0.28457,-8.44573 -0.0941,-12.57564 0.17793,-4.09637 0.57991,-8.1829 1.22102,-12.23296 0.12597,-0.7194 0.29277,-1.73215 0.45682,-2.56184 1.1502,-6.20076 2.96742,-12.37196 6.29713,-17.77665 3.4226,-5.84711 7.76476,-11.16174 12.88472,-15.60487 0.57662,-0.49937 1.38112,-1.18283 2.07288,-1.72735 9.57141,-7.64967 21.11949,-12.42056 32.91045,-15.44619 6.70712,-1.73066 13.54488,-2.91982 20.41901,-3.75028 0.90656,-0.10214 2.08303,-0.24387 3.01504,-0.33552 4.24387,-0.44034 8.54252,-0.76912 12.70275,-0.9711 4.80139,-0.23536 9.60812,-0.33464 14.41503,-0.34963 z" />
      <path
         id="path9"
         style="fill:#4f4f4f"
         d="M 62.957031,-5.8945312 C 55.36369,-3.2743437 47.571225,-1.0304782 40.489726,2.8477918 20.61406,13.305382 5.0702123,31.710336 -1.8476984,53.084796 c -1.1920561,3.526922 -2.2927042,7.083858 -3.486286,10.610516 0,166.868488 0,333.736978 0,500.605468 2.6881935,8.01833 4.96451763,16.24635 8.9878674,23.73433 9.284796,17.86338 24.881845,32.34567 43.387589,40.27556 6.005002,2.5908 12.295968,4.58316 18.749544,5.66589 11.072255,0.31807 22.150681,0.25672 33.226075,0.35736 72.552249,0.38788 145.105679,0.45823 217.658689,0.60242 157.91941,0.24519 315.83904,0.25368 473.75859,0.30389 114.97826,0.0311 229.95653,0.0636 344.93473,0.0937 -0.2332,-190.56966 -0.4697,-381.13932 -0.7031,-571.70898 -3.159,-8.72304 -5.8534,-17.691848 -10.4277,-25.816406 -6.9618,-12.78004 -17.1643,-23.835949 -29.584,-31.4667971 -6.9213,-4.3051078 -14.4806,-7.5011046 -22.253,-9.9130377 C 1069.8823,-4.394263 1067.389,-5.3408859 1064.8258,-6 730.97305,-6 397.12031,-6 63.267578,-6 c -0.103516,0.035156 -0.207031,0.070312 -0.310547,0.1054688 z M 650.46484,15.261719 c 100.70687,0.08452 201.41396,0.158839 302.12027,0.52972 30.56281,0.129211 61.12609,0.249959 91.68759,0.569968 5.8266,0.07976 11.6831,0.115947 17.4646,0.364271 2.6139,0.435936 5.0674,1.231463 7.5379,2.069824 15.7027,5.569222 28.9646,17.446374 36.6026,32.212766 2.5137,4.91569 4.4524,10.162299 5.4635,15.595594 0.4046,6.12469 0.401,12.214521 0.5252,18.375916 0.4314,28.077832 0.4748,56.159682 0.5869,84.240092 0.2571,81.49232 0.1951,162.98518 0.2126,244.47779 0,66.32278 0,132.64557 0,198.96836 -233.32785,-0.0574 -466.65573,-0.0818 -699.98357,-0.19034 -93.48599,-0.0832 -186.9725,-0.0891 -280.45761,-0.5472 -19.95152,-0.13005 -39.90535,-0.21747 -59.852104,-0.7016 -1.282629,-0.0388 -2.722732,-0.0894 -3.985835,-0.15579 -2.099291,-0.0107 -4.164628,-0.43398 -6.138842,-1.13453 -3.710924,-1.11927 -7.454345,-2.69955 -10.783195,-4.46195 -5.169478,-2.72441 -10.120421,-6.28431 -14.431086,-10.34976 -6.095085,-5.75745 -11.134191,-12.64894 -14.660711,-20.26157 -0.414187,-0.89338 -0.916703,-2.03555 -1.316097,-3.04929 -1.149004,-2.97843 -2.249695,-6.01228 -2.748356,-9.17727 -0.114083,-0.73787 -0.234426,-1.77802 -0.301298,-2.64086 -0.469453,-6.2262 -0.554405,-12.38422 -0.687413,-18.60955 -0.428917,-22.68093 -0.425236,-45.36705 -0.516203,-68.0511 -0.167089,-61.81262 -0.123468,-123.62555 -0.130471,-185.43833 0.02434,-56.4878 -0.02147,-112.97609 0.279916,-169.46329 0.08656,-12.95207 0.193604,-25.904722 0.513672,-38.853512 0.09832,-2.920511 0.177548,-6.009804 0.357422,-8.992187 0.04454,-0.553365 0.08385,-1.313601 0.133682,-1.857531 0.157972,-3.439673 0.949238,-6.821176 2.163325,-10.036732 6.191035,-17.522678 20.22307,-32.065286 37.457518,-38.985608 3.361744,-1.307729 6.822084,-2.477761 10.39685,-3.00574 8.17931,-0.303882 16.484702,-0.308231 24.723186,-0.424849 45.49986,-0.394993 91.00152,-0.51731 136.50273,-0.652652 106.79,-0.27838 213.58043,-0.361994 320.37076,-0.377212 33.63085,0.0047 67.26171,0.0094 100.89257,0.01415 z m 321.86133,93.716801 c -19.17727,0.30482 -38.38649,2.07158 -57.1396,6.18661 -16.86478,3.73819 -33.43547,9.60712 -48.07134,18.90714 -12.62911,8.03054 -23.61955,18.78668 -31.3324,31.6558 -4.44476,7.38171 -8.00068,15.29145 -10.73003,23.46036 -2.56223,7.80672 -3.9672,15.9585 -4.4915,24.14908 -0.60989,8.90401 -0.50159,17.84585 -0.0625,26.755 0.63604,10.67471 2.56023,21.38157 6.8183,31.24034 3.01686,7.31783 6.86429,14.33349 11.86162,20.49419 7.7207,9.67567 17.3345,17.71604 27.70132,24.4185 7.35719,4.72525 15.21262,8.64309 23.32665,11.88958 1.14615,0.47924 2.2852,0.97506 3.42617,1.46644 -4.33872,6.13941 -9.13799,11.93447 -13.55872,18.01357 -19.73138,26.43019 -38.17986,53.82444 -55.14068,82.11469 -8.61012,14.39705 -16.67216,29.13063 -23.8963,44.27409 -1.14406,2.41105 -2.41767,4.80617 -3.09177,7.39965 -0.32672,1.73708 0.44297,3.47787 1.65232,4.70191 1.4886,1.65757 3.8021,2.05067 5.92036,2.13498 6.31921,0.44861 12.66136,0.35542 18.99253,0.42574 7.17161,0.013 14.34322,-0.0115 21.51484,-1.7e-4 5.2197,-9.61659 10.3681,-19.27431 15.8418,-28.75 1.50932,-2.57978 3.14469,-5.35517 4.68359,-7.94336 12.21579,-20.41936 25.40885,-40.35886 39.01953,-59.78711 9.60404,-13.70117 19.54769,-27.1698 29.57911,-40.59689 2.74251,-3.68841 5.48502,-7.37682 8.22753,-11.06522 7.66647,0.59498 15.34663,1.03278 23.03716,1.13147 19.85868,0.44884 39.72374,0.33136 59.58594,0.34509 0,48.88867 0,97.77734 0,146.66602 16.4518,0 32.9036,0 49.3555,0 -0.2317,-122.82553 -0.4655,-245.65104 -0.6953,-368.47657 -8.365,-2.16595 -16.7255,-4.45128 -25.2936,-5.67708 -16.692,-2.66699 -33.562,-4.04498 -50.43275,-4.9435 -8.86179,-0.43837 -17.73482,-0.65727 -26.60773,-0.59035 z m -825.40039,0.0176 c -16.81525,0.2142 -33.59747,1.53241 -50.312713,3.31593 -11.647067,1.28021 -23.296116,2.9217 -34.622655,5.99626 -2.439294,0.62531 -4.879238,1.24807 -7.318537,1.87336 -0.229234,122.82813 -0.462299,245.65625 -0.693359,368.48438 16.007161,0 32.014323,0 48.021484,0 0,-48.80404 0,-97.60808 0,-146.41211 25.8536,-0.41488 51.71534,-0.57468 77.55785,-1.47181 3.05227,-0.11935 6.1027,-0.27973 9.14918,-0.5028 2.97726,3.24217 5.40856,6.9314 7.97846,10.49328 8.87982,12.68035 17.06125,25.86669 24.97522,39.12309 8.98078,15.14048 17.581,30.54558 25.78985,46.14959 5.78322,10.96333 11.35457,22.12997 16.80367,33.29775 3.17069,6.44089 6.33948,12.88272 9.51139,19.32301 17.09896,0 34.19792,0 51.29688,0 -5.56324,-12.63669 -11.07765,-25.30532 -17.35168,-37.61091 -12.43274,-24.78074 -26.07954,-48.93848 -40.35696,-72.69816 -7.53279,-12.5052 -15.37633,-24.91632 -23.33042,-37.09718 -1.96396,-3.06894 -3.92657,-6.13914 -5.83008,-9.2461 6.47601,-2.25857 12.97304,-4.5567 19.06156,-7.75167 15.95114,-8.10223 29.82739,-20.43173 39.25588,-35.68033 9.07499,-14.54494 14.1448,-31.41261 15.41033,-48.46658 1.11715,-14.68004 -0.31465,-29.512 -3.78637,-43.80361 -3.24476,-12.91586 -8.85599,-25.33424 -17.12635,-35.82304 -9.82059,-12.57022 -22.65433,-22.59002 -36.69192,-30.05773 -18.65575,-9.90441 -39.32144,-15.47702 -60.14062,-18.5108 -15.63477,-2.28144 -31.46011,-3.06488 -47.25009,-2.92382 z m 263.94141,2.34961 c -3.91677,0.11244 -8.01877,-0.15783 -11.70117,1.42188 -2.87711,1.39448 -4.66175,4.38677 -5.18752,7.46704 -1.14613,5.02057 -1.58294,10.16542 -2.21966,15.26663 -2.11042,18.3525 -3.61234,36.76812 -5.17393,55.17348 -3.59325,43.50144 -6.6577,87.04369 -9.52289,130.59801 -3.48654,53.16668 -6.53611,106.3608 -8.9843,159.58548 -0.12355,2.6026 -0.24692,5.20521 -0.37069,7.8078 16.10807,0 32.21615,0 48.32422,0 1.00162,-13.97132 1.88259,-27.95194 2.37314,-41.95149 0.86663,-21.69703 1.665,-43.39705 2.70558,-65.08672 1.85469,-40.4963 4.06982,-80.95292 6.79732,-121.40189 1.29021,-18.81561 2.6952,-37.70208 4.41707,-56.50245 0.10399,-1.12677 0.21248,-2.25312 0.31822,-3.37972 8.47688,16.80291 16.90565,33.65406 25.0426,50.63672 18.27572,37.80251 36.21751,75.76564 53.95473,113.82342 9.28541,19.89586 18.3883,39.87766 27.23464,59.97258 1.64888,3.71175 3.29502,7.42472 4.94576,11.13564 10.24942,0.18348 20.49684,0.61128 30.74899,0.55302 3.22973,-0.0408 6.7554,-0.25223 9.39989,-2.32621 2.02316,-1.60577 2.72989,-4.18144 3.67029,-6.46815 3.13119,-7.61664 6.5277,-15.02439 9.91153,-22.56593 18.4084,-40.54242 37.33573,-80.8241 56.43481,-121.04058 12.01892,-25.21537 24.07157,-50.419 36.62017,-75.37595 1.46986,-2.93022 2.96708,-5.84655 4.48385,-8.75276 1.2664,12.41423 2.17211,24.9362 3.1198,37.43091 2.22701,30.70314 4.00748,61.47558 5.69661,92.2312 2.50508,46.64078 4.59961,93.356 6.29899,140.05329 0.22675,6.0753 0.45105,12.15069 0.67757,18.226 15.70373,0.3344 31.40756,0.66387 47.11133,0.9961 0.0169,-8.62012 0.10368,-17.2472 -0.40927,-25.85645 -1.3257,-29.71066 -3.02128,-59.40117 -4.68763,-89.09439 -2.09495,-36.75771 -4.48766,-73.49816 -7.21653,-110.21395 -2.75649,-37.24457 -5.74167,-74.47402 -9.3077,-111.65014 -1.01986,-10.24656 -2.02842,-20.50122 -3.5442,-30.68827 -0.41749,-2.18295 -0.68345,-4.55748 -2.09443,-6.36204 -1.8226,-2.2467 -4.82987,-2.87828 -7.56685,-3.12902 -6.45002,-0.72315 -12.9557,-0.5349 -19.43304,-0.46271 -3.37265,0.12379 -6.86052,0.21929 -10.02867,1.50222 -2.37655,1.01089 -4.21517,2.9369 -5.59413,5.07595 -4.54416,6.39921 -8.26941,13.32556 -12.11785,20.15184 -10.75022,19.46343 -20.78964,39.308 -30.76492,59.17517 -19.14395,38.28557 -37.57745,76.92479 -55.58691,115.75648 -8.41574,18.1619 -16.6079,36.42578 -24.86617,54.66035 -0.72065,1.58194 -1.44434,3.16246 -2.18209,4.73652 -5.47007,-11.26675 -10.48612,-22.89956 -15.72829,-34.33277 -22.38479,-49.24804 -45.6065,-98.11841 -69.91549,-146.44618 -9.6132,-19.02827 -19.3775,-37.98892 -29.79177,-56.5941 -4.01685,-7.13707 -8.27959,-14.13265 -12.73669,-21.00274 -0.58495,-0.92175 -1.16939,-1.84382 -1.75549,-2.76484 -7.26628,0.003 -14.53256,0.008 -21.79883,0.0117 z m -257.11133,41.54102 c 4.70846,0.0295 9.44251,0.0828 14.08848,0.24867 2.58941,0.081 5.19397,0.20454 7.70483,0.3879 10.48415,0.74041 20.9035,2.50103 31.03849,5.28803 11.75161,3.2964 23.23233,8.2307 32.84662,15.86167 7.2355,5.71863 13.25094,13.05477 17.0409,21.48924 3.00804,6.50146 4.74008,13.57075 5.15417,20.7197 0.48065,7.43081 0.33529,14.90245 -0.33978,22.31664 -0.90192,10.42546 -4.03201,20.82146 -10.08645,29.4401 -5.5536,7.99472 -13.64115,13.92636 -22.39908,17.99969 -10.40201,4.80555 -21.68003,7.40725 -32.98482,8.9974 -4.20842,0.58715 -8.43502,1.05631 -12.6786,1.29393 -1.98809,0.11606 -4.17634,0.22483 -6.24472,0.29637 -23.036,0.93152 -46.18089,0.75766 -69.27246,0.77243 -1.87448,-10e-4 -3.74896,7.1e-4 -5.62344,0.002 0,-47.46094 0,-94.92188 0,-142.38281 5.96661,-1.0359 12.15477,-1.38317 18.10352,-1.79492 6.06387,-0.35768 12.08268,-0.6081 18.12583,-0.7504 5.17445,-0.12843 10.35055,-0.17769 15.52651,-0.18515 z m 818.01953,0.0215 c 5.52773,0.004 11.05021,0.10752 16.52977,0.29972 9.5584,0.35744 19.08754,0.82124 28.60844,1.42074 1.5688,0.10122 3.0291,0.23015 4.6196,0.35962 1.166,0.11291 2.5688,0.23279 3.8242,0.38281 0.2116,47.53386 0.4232,95.06771 0.6348,142.60157 -23.8795,-0.1369 -47.82759,-0.0426 -71.66017,-0.75 -7.19801,-0.24284 -14.42616,-0.38991 -21.55004,-1.54972 -7.47329,-1.10944 -14.87286,-2.83386 -21.97144,-5.44052 -1.39831,-0.51864 -2.9955,-1.15304 -4.44502,-1.78058 -1.81432,-0.78865 -3.58908,-1.63649 -5.27612,-2.52022 -9.70788,-5.04511 -18.26689,-12.63006 -23.58931,-22.26607 -2.52507,-4.47428 -4.42724,-9.49323 -5.56065,-14.38625 -0.2199,-0.9609 -0.38844,-1.78684 -0.57295,-2.80429 -0.92585,-5.52423 -1.15457,-11.14088 -1.24185,-16.73317 -0.0331,-2.82787 0.0227,-5.59003 0.1234,-8.36489 0.0309,-0.48747 0.0713,-1.33193 0.10589,-1.95618 0.11656,-2.14285 0.30023,-4.52299 0.57406,-6.76324 1.51791,-13.51856 8.34429,-26.16812 18.09316,-35.54687 1.43831,-1.39013 3.0173,-2.77307 4.49955,-3.95522 1.72018,-1.39225 3.71981,-2.83682 5.65702,-4.10271 5.55372,-3.62415 11.60996,-6.42763 17.84766,-8.65234 0.67248,-0.22429 1.63157,-0.56774 2.42273,-0.81627 13.59945,-4.42188 27.94521,-5.93247 42.17493,-6.47865 3.36539,-0.11589 6.74519,-0.17732 10.15234,-0.19727 z" />
      <path
         id="path8"
         style="fill:#2e2e2e"
         d="m 412.55664,-5.9882812 c -88.36042,0.045424 -176.72115,0.012472 -265.08116,0.3216045 -24.92968,0.1173758 -49.862383,0.1667199 -74.786515,0.7533376 -4.520257,0.1501722 -9.054386,0.2798876 -13.546387,0.8313079 -3.702035,0.6631595 -7.205925,2.098898 -10.704362,3.43187224 C 32.014868,6.0048256 17.624532,17.72336 8.0860222,32.689094 2.175232,41.90971 -2.0460936,52.245269 -4.0722279,63.016487 c -1.0302367,7.376021 -1.0172724,14.841911 -1.2330656,22.272419 -0.4457733,21.580514 -0.4497602,43.166834 -0.5427232,64.750884 -0.1840464,60.64371 -0.1306861,121.28779 -0.1443572,181.93169 0.017735,58.67439 -0.028476,117.34924 0.2704535,176.02305 0.1179471,15.49597 0.1945238,30.99643 0.7604551,46.48373 0.2339297,5.29372 0.5950637,10.63261 2.0460394,15.75495 2.94522505,11.13313 8.0956102,21.68164 15.1313149,30.80359 8.394386,10.9648 19.430546,19.89021 31.938474,25.75038 6.36022,2.99062 13.080581,5.2699 19.996029,6.54585 7.778384,0.7319 15.600415,0.68064 23.404052,0.86051 25.593766,0.40499 51.191356,0.46831 76.787646,0.58147 85.97099,0.31582 171.94271,0.32504 257.91416,0.37918 203.44776,0.10643 406.89557,0.10732 610.34335,0.15911 34.2448,0.007 68.4896,0.0146 102.7344,0.0207 -0.012,-141.03229 -0.011,-282.06458 -0.045,-423.09687 -0.045,-36.12211 -0.022,-72.2464 -0.5701,-108.36525 -0.2111,-12.24424 -0.4899,-24.497699 -1.4456,-36.709733 -0.519,-5.76532 -1.2011,-11.602141 -3.206,-17.067732 -1.6689,-4.291193 -4.0286,-8.263127 -6.0924,-12.367833 -9.7296,-17.927606 -26.2145,-31.9269373 -45.2129,-39.2128901 -2.6042,-0.9402273 -5.2113,-1.9473648 -7.9342,-2.4814206 -4.6093,-0.7709166 -9.3022,-0.7186599 -13.9582,-0.9205757 -15.6534,-0.4640629 -31.3152,-0.5008616 -46.9738,-0.628136 C 959.6962,-5.8292647 909.49574,-5.8528911 859.29571,-5.910937 721.2193,-6.0201881 583.14284,-5.98812 445.06641,-5.9914035 c -10.83659,0.00104 -21.67318,0.00208 -32.50977,0.00312 z M 713.62891,15.345703 c 85.43726,0.04085 170.87475,0.02762 256.31167,0.300377 26.18246,0.122014 52.36772,0.156627 78.54542,0.712314 2.6145,0.05203 5.4205,0.164686 7.9515,0.249028 3.607,0.193093 7.3018,0.20312 10.7376,1.468121 19.2891,5.948589 35.315,21.438309 41.9913,40.477859 1.0455,2.985756 1.9705,6.049952 2.1311,9.230074 0.092,1.182807 0.1434,2.277053 0.2022,3.515904 0.5249,10.313731 0.5641,20.697515 0.704,31.06429 0.3754,38.38062 0.3562,76.76365 0.4062,115.1457 0.095,103.30518 0.042,206.61042 0.056,309.91563 0,28.41367 0,56.82734 0,85.24102 -255.86626,-0.0438 -511.73254,-0.0738 -767.59881,-0.12623 -57.99221,-0.0301 -115.9847,-0.0417 -173.97645,-0.29616 -27.87629,-0.13965 -55.7559,-0.27965 -83.62397,-1.01767 -5.039491,-0.14251 -10.108989,-0.33343 -15.12302,-0.6244 -3.981852,-0.25322 -8.138386,-0.5217 -12.149304,-1.1363 -2.300399,-0.36333 -4.641909,-0.94547 -6.535575,-2.37017 -2.352458,-1.66155 -5.020131,-2.80307 -7.369565,-4.47281 -5.391747,-3.68075 -10.222995,-8.15239 -14.529034,-13.04935 -3.097472,-3.54654 -5.864956,-7.39124 -8.047605,-11.57052 -1.609955,-2.91182 -3.369336,-5.82199 -4.036886,-9.12741 -1.022755,-4.66217 -1.307024,-9.44547 -1.640625,-14.19531 -0.248101,-4.06889 -0.403298,-8.31077 -0.527034,-12.44982 -0.607823,-20.94453 -0.656939,-42.01874 -0.745335,-63.01619 -0.154023,-55.97446 -0.08782,-111.94923 -0.09525,-167.92384 0.01947,-58.59102 -0.01052,-117.18227 0.200631,-175.77301 0.0966,-17.35626 0.149934,-34.71422 0.513616,-52.067412 0.08643,-4.027219 0.190479,-8.189396 0.376027,-12.129106 0.09897,-1.948829 0.21347,-3.705727 0.435245,-5.638318 0.529582,-4.142952 2.162958,-8.039928 3.771787,-11.859728 7.814099,-17.286054 23.319951,-31.036379 41.601562,-36.273438 2.958541,-0.83665 6.063859,-0.77545 9.108141,-0.948796 16.793486,-0.578279 33.688504,-0.624014 50.527804,-0.763457 60.62578,-0.375446 121.25303,-0.36175 181.87968,-0.436184 136.18226,-0.08167 272.36459,-0.05824 408.54688,-0.05469 z M 147.04688,109.13281 c -17.26839,0.20992 -34.50329,1.56669 -51.664256,3.44211 -11.659677,1.32674 -23.265118,3.22073 -34.674094,5.9908 -2.010283,0.45653 -4.020869,0.91173 -6.030796,1.36983 -0.234886,122.91015 -0.465626,245.82031 -0.699218,368.73047 16.007161,0 32.014323,0 48.021484,0 0,-48.80079 0,-97.60157 0,-146.40235 28.41164,-0.56833 56.82832,-0.96451 85.23295,-1.82334 0.66885,0.0718 1.53365,-0.34486 1.96236,0.34092 2.52879,2.95477 4.70769,6.19122 6.93664,9.37411 7.29003,10.73742 14.46252,21.55804 21.28854,32.59787 4.1318,6.66676 8.10706,13.31359 12.03849,20.12177 10.37972,17.96405 19.94702,36.48431 29.24618,55.06466 5.12096,10.23913 10.21952,20.48866 15.34367,30.72636 17.04036,0 34.08073,0 51.12109,0 -6.92412,-15.25087 -13.78956,-30.54024 -21.54201,-45.39378 -14.89164,-28.95678 -31.35485,-57.08307 -48.65043,-84.66159 -5.59684,-8.88218 -11.32038,-17.68473 -16.79779,-26.6419 6.71492,-2.37138 13.36761,-4.97683 19.6622,-8.32828 14.10832,-7.38355 26.75308,-17.8176 35.9282,-30.89405 7.52393,-10.67 12.8505,-22.87648 15.63968,-35.62634 2.01641,-10.26587 2.34349,-20.77407 2.25039,-31.20797 -0.19723,-11.05937 -1.10453,-22.23118 -4.3723,-32.85276 -4.24863,-14.06036 -11.62696,-27.14049 -21.27052,-38.20422 -5.94477,-6.7947 -12.90265,-12.66488 -20.46114,-17.5887 -17.48649,-11.55747 -37.57406,-18.65921 -58.01899,-22.84486 -19.87552,-4.08068 -40.22777,-5.45449 -60.49033,-5.28876 z m 825.78124,0.36133 c -16.51978,0.0867 -33.12718,0.81077 -49.36641,4.05012 -16.44479,3.09611 -32.70922,7.88466 -47.55075,15.73028 -14.91797,7.83842 -28.39872,18.81971 -37.96966,32.78411 -6.12731,8.87819 -10.60162,18.85297 -13.40614,29.25971 -4.48893,16.31457 -5.60187,33.48211 -3.8753,50.28971 1.43037,13.48963 4.82655,26.90923 11.16021,38.9631 2.48434,4.71371 5.63787,9.05161 9.21509,12.99133 6.8311,7.70994 14.53659,14.64277 22.86946,20.694 4.75407,3.39667 9.90437,6.18466 15.1645,8.70853 4.77175,2.33905 9.62529,4.52079 14.60276,6.38653 -8.09551,11.43637 -16.79724,22.43754 -24.83983,33.90612 -14.07978,19.77423 -27.53953,39.99468 -40.2996,60.64686 -6.01862,9.78432 -11.64362,19.8038 -17.08405,29.91852 -4.27696,7.88625 -8.48694,15.81833 -12.31357,23.93468 -0.90853,2.03081 -1.72074,4.44734 -0.66217,6.58406 1.01216,2.24376 3.3816,3.68135 5.81895,3.72987 5.9398,0.57911 11.91828,0.5246 17.8802,0.58311 7.94922,0.0263 15.89848,0.003 23.84772,0.0112 6.68308,-12.46077 13.38817,-24.91861 20.73485,-37.005 13.8249,-23.04745 28.68608,-45.41527 44.16437,-67.3677 9.62422,-13.63535 19.6508,-26.98085 29.62694,-40.38203 0.85912,-1.15402 1.71824,-2.30805 2.57736,-3.46207 9.93505,0.61064 19.87793,1.1259 29.83292,1.24533 18.12348,0.37208 36.25183,0.29518 54.37803,0.30545 0,48.88867 0,97.77734 0,146.66602 16.0071,0 32.0143,0 48.0215,0 -0.2342,-122.97461 -0.4659,-245.94923 -0.7012,-368.92383 -13.8261,-2.70237 -27.5927,-5.85164 -41.6136,-7.39826 -19.9702,-2.40614 -40.11504,-2.93243 -60.21258,-2.84979 z m -577.82031,4.6582 c -1.00875,5.42379 -1.97138,10.91568 -2.43735,16.442 -2.56401,24.26895 -4.71313,48.57956 -6.86758,72.88816 -2.19408,25.11232 -4.09883,50.24908 -5.79208,75.4004 -3.31047,48.12622 -6.23986,96.28035 -8.86211,144.44769 -1.1701,21.77101 -2.14052,43.55209 -3.04869,65.33543 16.02734,0 32.05469,0 48.08203,0 1.97203,-34.23238 3.23553,-68.501 4.77843,-102.75471 1.85032,-41.99818 4.02575,-83.9478 6.86712,-125.88778 1.29474,-18.82611 2.7049,-37.65606 4.54572,-56.46393 0.10617,-1.08237 0.21233,-2.16473 0.3185,-3.2471 11.66702,23.33813 23.31993,46.68503 34.60077,70.21258 18.15173,37.62001 35.98556,75.39419 53.43144,113.34674 7.31175,15.91801 14.34687,31.96035 21.37936,48.00289 0.59066,1.34385 1.18124,2.68774 1.77202,4.03154 13.21869,0.3138 26.4375,0.62247 39.65625,0.93359 8.71556,-19.84615 17.37008,-39.72136 26.51247,-59.37628 17.72051,-38.50295 35.92303,-76.78167 54.29408,-114.97752 10.1328,-21.03672 20.34785,-42.03506 30.86923,-62.88057 1.44321,14.60329 2.53748,29.33166 3.61484,44.01864 2.4002,33.63935 4.37124,67.38327 6.15272,101.07523 1.90298,36.30269 3.4947,72.62198 4.69241,108.95493 0.30282,7.93119 0.60994,15.86734 1.26787,23.77768 0.40483,3.74983 0.91015,7.48667 1.34052,11.23407 15.27409,0 30.54818,0 45.82227,0 0.0428,-9.03378 0.01,-18.07233 -0.49835,-27.09445 -1.21128,-27.24004 -2.84,-54.45723 -4.43382,-81.6771 -2.70574,-45.08939 -5.52628,-90.17427 -8.90053,-135.21821 -2.51507,-32.79527 -5.40599,-65.56112 -8.50223,-98.30643 -0.80704,-8.23919 -1.56512,-16.48681 -2.69682,-24.68882 -0.46357,-3.07234 -0.95168,-6.14147 -1.42724,-9.21226 -13.6869,0.31334 -27.37374,0.62966 -41.06054,0.94727 -8.55017,15.12506 -17.31973,30.13359 -25.28689,45.57942 -13.75686,26.21376 -26.84561,52.7691 -39.83557,79.36809 -16.25439,33.40408 -32.15737,66.98062 -47.57386,100.77852 -5.15562,11.3566 -10.21698,22.75612 -15.23923,34.1724 -3.05406,-6.99498 -6.1079,-13.98938 -9.23371,-20.95267 -17.15675,-38.42403 -35.15677,-76.46873 -53.58777,-114.29907 -13.87856,-28.39641 -28.01098,-56.67595 -42.83899,-84.58869 -6.15804,-11.57392 -12.59383,-22.99735 -19.19892,-34.32108 -1.10208,-1.91238 -2.20626,-3.82356 -3.30663,-5.73692 -13.0228,-0.31776 -26.04552,-0.63876 -39.06836,-0.95508 -0.10026,0.5638 -0.20052,1.1276 -0.30078,1.6914 z m -243.11914,38.70899 c 5.17013,0.0349 10.38033,0.11805 15.48468,0.31866 7.27186,0.29849 14.54858,0.75781 21.7536,1.82196 3.83325,0.55873 7.8509,1.25092 11.71314,2.08897 11.50654,2.45373 22.8439,6.45879 32.61429,13.12817 5.49983,3.78948 10.49594,8.30923 14.85617,13.36685 0.27579,0.34512 0.80903,0.95923 1.16932,1.42015 4.05673,4.97163 7.26868,10.65066 9.2078,16.7783 2.71044,8.34881 3.30031,17.21055 3.28741,25.93551 -0.0135,2.50212 -0.0929,5.00312 -0.20164,7.50276 -0.0326,0.49766 -0.0638,1.28771 -0.0997,1.77578 -0.14503,2.17455 -0.36559,4.34425 -0.67572,6.50156 -0.0943,0.57518 -0.23059,1.49037 -0.36165,2.19131 -1.68335,9.48702 -5.52753,18.70347 -11.71062,26.14853 -6.52604,7.77614 -15.41736,13.22328 -24.78655,16.91569 -9.80123,3.8661 -20.18137,6.04807 -30.60212,7.42025 -0.98771,0.1101 -2.2454,0.28315 -3.33948,0.39467 -8.97767,0.89404 -18.00272,1.14403 -27.01142,1.55163 -16.723,0.64139 -33.45394,0.9999 -50.20884,1.17908 -3.49078,0.0184 -6.98446,0.0513 -10.47151,-0.141 -0.28001,-12.88671 -0.21864,-25.77783 -0.25099,-38.6668 -0.004,-35.01377 0.25523,-70.02685 0.38771,-105.04024 6.8968,-0.65235 13.78926,-1.37193 20.70508,-1.79687 1.27699,-0.071 2.76754,-0.15505 4.10007,-0.21819 8.15054,-0.41773 16.25545,-0.573 24.44094,-0.57673 z m 830.2461,0.13086 c 5.35451,0.0246 10.75689,0.0947 16.04503,0.28472 6.4352,0.23354 12.8821,0.621 19.2403,1.28168 3.0817,0.29827 6.164,0.59347 9.2459,0.89063 0,47.75 0,95.5 0,143.25 -20.8971,0.11954 -41.82453,0.31371 -62.69083,-0.56628 -6.92625,-0.27495 -13.78156,-0.62844 -20.70806,-1.18448 -6.3316,-0.46151 -12.72382,-1.22474 -18.95526,-2.66162 -6.25016,-1.40338 -12.4268,-3.25052 -18.27446,-5.7633 -1.00817,-0.43587 -1.97239,-0.86726 -2.88414,-1.31198 -7.79761,-3.72399 -15.00952,-8.88972 -20.48528,-15.62367 -0.4979,-0.62198 -1.17195,-1.4787 -1.7058,-2.21769 -3.77797,-5.19297 -6.58808,-11.06673 -8.4192,-17.2159 -0.34398,-1.16649 -0.72271,-2.57811 -1.00977,-3.85938 -0.67341,-3.11681 -0.96966,-6.4392 -1.1875,-9.53125 -0.26341,-4.4846 -0.29186,-9.10515 -0.19531,-13.51758 0.20847,-6.84228 0.66372,-13.70898 1.98952,-20.43529 0.42654,-1.9091 1.07453,-4.03473 1.82891,-5.95787 2.81713,-7.31492 7.23735,-13.96794 12.68548,-19.58731 0.74466,-0.75935 1.67678,-1.68907 2.53359,-2.47699 2.43907,-2.27998 5.19246,-4.45899 7.84922,-6.2984 7.86611,-5.42123 16.6861,-9.3666 25.82422,-12.09375 0.46961,-0.1285 1.28262,-0.36611 1.8838,-0.53642 5.56725,-1.55347 11.25648,-2.68178 17.01464,-3.21748 0.75265,-0.0722 1.92283,-0.18943 2.69153,-0.25447 6.06989,-0.50833 12.15333,-0.84234 18.24011,-1.06584 6.40022,-0.21789 12.97758,-0.3265 19.44336,-0.33008 z" />
      <path
         id="path7"
         style="fill:#000000"
         d="m 307.49023,-9.9238281 c -63.84139,0.046255 -127.68318,0.078725 -191.52381,0.424225 -15.80367,0.1172212 -31.610052,0.244739 -47.407076,0.7340089 -3.98031,0.1745389 -7.99958,0.2801373 -11.908204,1.1078177 -5.144046,1.2964337 -10.061917,3.3624961 -14.848089,5.6228102 C 19.097371,9.0747972 1.2453103,29.850261 -5.9562827,54.117463 c -1.2716497,4.119932 -2.2242356,8.369201 -2.3437418,12.693787 -0.5366184,9.531678 -0.5669231,19.08249 -0.7640378,28.625304 -0.6269863,38.241806 -0.7550661,76.489396 -0.9336687,114.735256 -0.305063,79.02453 -0.248924,158.0504 0.1277969,237.07456 0.1881045,32.87889 0.3954839,65.7593 1.0408626,98.6329 0.1724799,6.29836 0.2721157,12.60706 0.7792326,18.88821 0.772835,5.6316 2.5952287,11.0583 4.6122356,16.35116 10.1155878,25.46185 32.0273983,46.04317 58.2532203,54.12629 6.219091,1.85807 12.648942,3.39434 19.184371,3.19415 30.196972,0.22416 60.395032,0.2019 90.592572,0.28021 128.97462,0.23067 257.94944,0.31547 386.92423,0.38291 195.956,0.077 391.91199,0.15611 587.86801,0.23178 -0.2384,-192.11198 -0.4802,-384.22395 -0.7188,-576.335933 -3.0567,-8.910066 -5.8609,-18.00545 -10.6094,-26.200412 -10.6072,-19.15323 -28.0465,-34.5425194 -48.6114,-42.1828051 -4.1129,-1.5377429 -8.2806,-2.9317464 -12.4657,-4.2560705 -2.3193,-0.5361364 -4.7159,-0.190447 -7.0709,-0.2904787 -235.28855,-0.013471 -470.57709,-0.030359 -705.86563,-0.013849 -15.51758,0.00725 -31.03516,0.014493 -46.55274,0.02174 z M 713.25,19.347656 c 91.07541,0.05555 182.1512,0.0203 273.22608,0.37834 22.26382,0.09195 44.52902,0.224144 66.78762,0.748613 1.6478,0.04783 3.5101,0.128008 5.2406,0.218316 2.7789,0.113879 5.7175,0.304342 8.3708,1.381216 18.4045,6.127586 33.52,21.406018 39.3172,39.932627 1.4232,4.014262 1.193,8.326982 1.4771,12.512155 0.5306,16.690656 0.5726,33.519027 0.6988,50.267737 0.2895,55.69572 0.2457,111.39245 0.2791,167.08873 0.03,105.59687 0.011,211.19375 0.017,316.79063 -248.02413,-0.0477 -496.04823,-0.0595 -744.0723,-0.17881 -81.61116,-0.0767 -163.22295,-0.0837 -244.83305,-0.55327 -15.87446,-0.12234 -31.751166,-0.23491 -47.620398,-0.67842 -2.745222,-0.19288 -5.553555,-0.0416 -8.234055,-0.75357 -5.827485,-1.86986 -11.466473,-4.41263 -16.510978,-7.90266 -5.420238,-3.67655 -10.219788,-8.25157 -14.221444,-13.43327 -0.409821,-0.54416 -1.002288,-1.3269 -1.460742,-1.98001 -1.711169,-2.40352 -3.24346,-4.93251 -4.601758,-7.55124 -0.268292,-0.53651 -0.688887,-1.36973 -0.996094,-2.02735 -1.536634,-3.31358 -2.918863,-6.72669 -3.79499,-10.27812 -0.654524,-4.23174 -0.660517,-8.52656 -0.833916,-12.7961 -0.04076,-1.99776 -0.09223,-4.19901 -0.137104,-6.27502 -0.491778,-24.18371 -0.455587,-48.37385 -0.556813,-72.56129 -0.15625,-63.1599 -0.105277,-126.32006 -0.115412,-189.48009 0.01553,-53.29298 0.0029,-106.58626 0.24083,-159.87882 0.09333,-16.07909 0.17973,-32.16158 0.689296,-48.233696 0.195856,-3.209188 0.162146,-6.454875 0.75586,-9.623897 0.807921,-3.442525 2.218533,-6.710545 3.659348,-9.927788 C 31.296873,43.32129 39.887276,33.590438 50.661656,27.366538 54.01934,25.407235 57.566104,23.771121 61.240234,22.5 c 0.722562,-0.251057 1.71782,-0.577554 2.561502,-0.8212 1.388902,-0.458152 2.813957,-0.754831 4.277412,-0.812863 0.587486,-0.04929 1.548313,-0.110531 2.284133,-0.164765 0.552111,-0.02485 1.600442,-0.07945 2.171875,-0.111328 10.307008,-0.33904 20.756356,-0.451762 31.124924,-0.583292 29.68608,-0.28801 59.3738,-0.351106 89.061,-0.437044 77.33553,-0.187012 154.67134,-0.183904 232.00704,-0.210713 96.17396,-0.01559 192.34792,-0.01617 288.52188,-0.01114 z M 142.82812,105.7207 c -23.47532,0.42992 -46.995749,2.11194 -70.094341,6.4657 -7.654892,1.49974 -15.186082,3.54636 -22.733779,5.49915 0,124.99349 0,249.98698 0,374.98047 18.666667,0 37.333333,0 56,0 0,-48.82292 0,-97.64584 0,-146.46875 27.10755,-0.61079 54.21687,-1.15712 81.32031,-1.93555 2.70861,3.27363 5.01139,6.85448 7.48394,10.30429 13.06574,18.84436 24.72804,38.56061 35.963,58.51877 9.14944,16.34513 17.76252,32.95322 26.15383,49.73417 4.93043,9.92205 9.90089,19.90352 14.85822,29.84707 18.81575,0 37.63151,0 56.44726,0 -1.77402,-5.47962 -3.16136,-11.07424 -4.93757,-16.55224 -1.50033,-4.51655 -3.75122,-8.71864 -5.72963,-13.02122 -6.93584,-14.38344 -14.36485,-28.52258 -21.87682,-42.61167 -7.64315,-14.22785 -15.69405,-28.23442 -24.07321,-42.04165 -8.65116,-14.41299 -17.63271,-28.62245 -26.62495,-42.82401 -0.34685,-0.56283 -0.75608,-1.21376 -1.12696,-1.81054 5.22408,-1.92867 10.41072,-3.98922 15.35537,-6.56456 15.37304,-7.83104 29.08875,-19.233 38.72784,-33.6167 8.73359,-12.93788 14.4081,-27.93326 16.42237,-43.41224 1.3539,-11.2138 1.17867,-22.55497 0.44502,-33.80702 -0.63435,-8.32845 -1.69394,-16.67188 -3.958,-24.72883 -3.26866,-11.05183 -8.42103,-21.53638 -15.12396,-30.90969 -4.33089,-6.07361 -9.22587,-11.77711 -14.87707,-16.66368 -10.50755,-9.21142 -22.76222,-16.24167 -35.5173,-21.84712 -13.58751,-5.91195 -27.89171,-10.15104 -42.47041,-12.77578 -15.14628,-2.6631 -30.54666,-3.50076 -45.90224,-3.75127 -4.7101,-0.066 -9.4207,-0.0544 -14.13092,-0.007 z m 829.75391,0.043 c -19.59244,0.25701 -39.35219,1.17856 -58.46059,5.84647 -16.30403,3.88292 -32.19084,9.78931 -46.74693,18.14009 -9.24651,5.37173 -17.77783,12.07805 -24.74065,20.22409 -10.4873,11.92565 -18.22364,26.31278 -22.03982,41.74807 -3.93641,15.27105 -5.02237,31.2085 -3.87029,46.91297 1.00273,12.93246 3.64569,25.83216 8.74139,37.79739 3.27056,7.59529 7.81728,14.63306 13.40277,20.73091 9.81098,11.00759 21.69765,20.03943 34.46841,27.34462 4.57366,2.57479 9.31136,4.85997 14.18712,6.80422 -9.43707,13.17042 -19.32671,26.01544 -28.47648,39.38995 -17.11913,24.61603 -33.44272,49.81051 -48.31278,75.85591 -5.87111,10.33884 -11.44106,20.882 -15.86649,31.93091 -1.96501,4.72727 -3.93709,9.45131 -5.90675,14.17675 19.6862,0 39.37239,0 59.05859,0 6.91923,-12.96113 14.01328,-25.83539 21.662,-38.38298 8.55392,-14.22914 17.37197,-28.3031 26.60363,-42.10335 1.67372,-2.4523 3.3767,-5.0053 5.07042,-7.4519 9.18849,-13.34507 18.65462,-26.49639 28.1397,-39.6316 5.10859,-7.01529 10.15813,-13.94385 15.51058,-20.77588 7.41962,0.10969 14.82615,0.63182 22.24216,0.87011 18.68833,0.6042 37.38918,0.68213 56.08598,0.76661 0,48.903 0,97.80599 0,146.70899 18.2318,0 36.4635,0 54.6953,0 -0.2388,-125.30404 -0.4748,-250.60808 -0.7148,-375.91211 -11.7285,-2.68561 -23.4846,-5.55063 -35.4329,-6.95884 -21.7913,-2.91413 -43.79445,-3.98029 -65.76832,-4.03824 -1.17708,0.002 -2.35417,0.005 -3.53125,0.007 z m -581.36719,4.64453 c -4.03851,30.5348 -6.55982,61.24169 -9.16496,91.92468 -4.04473,48.65243 -7.5322,97.3492 -10.48173,146.08009 -2.07799,34.79456 -3.95114,69.59979 -5.77316,104.40792 -0.41084,8.70496 -0.9483,17.40747 -1.10866,26.12159 -0.0411,4.57435 -0.0279,9.14904 -0.0437,13.72354 18.68554,0 37.37109,0 56.05664,0 -0.0541,-7.18509 -0.0767,-14.47712 0.17969,-21.59375 1.46407,-38.73899 3.33083,-77.46112 5.18941,-116.18274 1.23787,-24.9307 2.42409,-49.85146 3.99392,-74.76192 1.38334,-20.938 3.11209,-41.95144 4.83841,-62.86274 0.10864,-1.27058 0.21727,-2.54116 0.32591,-3.81175 11.61183,23.4352 23.04966,46.9567 34.27117,70.58156 18.55118,38.85806 36.89138,77.80925 54.79726,116.97634 5.83533,12.86503 11.36931,25.86316 16.96673,38.83273 15.04357,0.35471 30.08719,0.708 45.13086,1.05859 4.21382,-10.5962 8.43805,-21.19534 13.22654,-31.54836 13.84552,-30.8005 28.29275,-61.38536 42.69373,-91.95643 16.49552,-34.92352 33.14887,-69.7742 50.13637,-104.462 2.72478,31.45174 4.90931,62.91267 6.69323,94.44518 2.41242,42.19813 4.10606,84.48323 5.88841,126.73144 0.74695,17.74427 1.53515,35.48861 2.83551,53.20239 0.12322,1.78382 0.24627,3.56766 0.36996,5.35146 17.91536,0 35.83073,0 53.74609,0 0.052,-8.49529 0.086,-17.05636 -0.46121,-25.49956 -2.28316,-46.28437 -4.91093,-92.54837 -7.73808,-138.80382 -3.70254,-59.3103 -8.17761,-118.57716 -14.06914,-177.71256 -1.09853,-11.0984 -2.10828,-22.20767 -3.26428,-33.29903 -0.78258,-4.34158 -4.80535,-7.6779 -9.14522,-8.02373 -3.71118,-0.52999 -7.44517,-0.47855 -11.1754,-0.60298 -9.01312,-0.1135 -18.02753,-0.0287 -27.0412,-0.0583 -8.95829,15.00267 -17.60977,30.19478 -25.72461,45.6697 -16.58477,31.24586 -32.23565,62.97783 -47.66644,94.80711 -18.34008,37.99954 -36.14338,76.25952 -53.24567,114.83178 -14.65827,-32.73659 -29.58707,-65.353 -44.98099,-97.75092 -16.42851,-34.6985 -33.33425,-69.17863 -51.12857,-103.19946 -7.76401,-14.80851 -15.88219,-29.45799 -24.22376,-43.92748 -1.98272,-3.47687 -3.96469,-6.95416 -5.94793,-10.43073 -14.91015,0 -29.82031,0 -44.73047,0 -0.0749,0.58072 -0.14974,1.16145 -0.22461,1.74218 z m 576.02344,46.41602 c 16.62218,0.18698 33.18102,0.68112 49.78122,1.55859 1.8421,0.10541 3.8022,0.20099 5.6856,0.36914 0.2005,45.50131 0.401,91.00261 0.6015,136.50391 -20.2254,-0.1823 -40.45597,-0.15583 -60.67511,-0.74455 -2.72158,-0.10913 -5.44118,-0.25574 -8.09301,-0.44585 -2.04818,-0.13257 -4.01604,-0.29958 -6.10271,-0.48109 -11.23399,-1.05297 -22.54981,-2.33139 -33.33852,-5.79413 -9.11304,-2.8719 -17.92246,-7.2647 -24.86447,-13.93186 -4.35734,-4.1497 -8.16038,-8.92788 -11.01723,-14.23175 -3.00003,-5.80728 -4.42226,-12.29494 -5.03196,-18.7653 -0.0481,-0.5369 -0.11621,-1.40089 -0.17052,-2.06476 -0.33084,-3.97463 -0.39173,-8.07229 -0.39083,-12.12585 0.008,-3.18322 0.13974,-6.54114 0.37385,-9.60431 0.66463,-8.81569 2.76672,-17.75822 7.69388,-25.21547 2.29109,-3.59531 4.99867,-6.91309 7.94089,-9.99352 0.40703,-0.40632 1.03357,-1.06691 1.54075,-1.55661 3.96866,-3.93352 8.29687,-7.54301 13.15403,-10.33364 7.21362,-4.27209 15.22705,-6.99717 23.36627,-8.87963 5.8284,-1.38073 11.72164,-2.35983 17.69917,-3.12055 2.74468,-0.36176 5.49939,-0.64345 8.26322,-0.80879 0.58803,-0.0277 1.62327,-0.0845 2.22461,-0.11914 3.73553,-0.1665 7.55204,-0.21261 11.35937,-0.21484 z m -810.05469,0.0547 c 5.04757,0.005 10.10437,0.0836 15.09543,0.29926 1.60627,0.0825 3.44977,0.17215 5.14471,0.29354 3.61047,0.23694 7.2126,0.59116 10.80088,1.05563 0.48205,0.0734 1.32034,0.18926 1.93888,0.27894 2.95317,0.42716 6.02377,0.98032 8.85995,1.57653 3.29213,0.69034 6.73556,1.55873 9.8457,2.49219 1.5548,0.47886 3.00336,0.94775 4.5733,1.50756 1.5816,0.55712 3.41156,1.27515 5.06124,1.97989 10.49098,4.49165 20.13558,11.25054 27.27014,20.22117 4.85536,6.10451 8.53791,13.1742 10.60251,20.70244 1.15266,4.41083 1.47793,8.98183 1.71156,13.51863 0.006,0.37844 0.0364,1.20019 0.0519,1.74835 0.18998,7.76936 0.0317,15.5991 -1.33517,23.26767 -1.21167,6.29751 -3.55306,12.38139 -6.84755,17.88241 -1.80243,2.97179 -3.93159,5.7433 -6.34375,8.2461 -0.40826,0.41493 -1.04278,1.06423 -1.56439,1.54793 -0.99142,0.9424 -2.02986,1.83394 -3.09772,2.6884 -0.66843,0.53763 -1.58292,1.22752 -2.3762,1.78397 -8.72846,6.14652 -18.98929,9.71133 -29.33258,12.03559 -2.98901,0.67717 -6.0016,1.24625 -9.02559,1.74294 -0.84451,0.12714 -1.9742,0.30879 -2.93102,0.43825 -1.46552,0.21097 -3.09325,0.40271 -4.46742,0.56565 -1.92216,0.21151 -3.86781,0.37045 -5.85547,0.5 -1.79062,0.11084 -3.70721,0.21541 -5.56503,0.31283 -23.01044,1.16337 -46.05655,1.44736 -69.11129,1.86686 -1.42886,0.0251 -2.85771,0.0508 -4.28657,0.0762 0,-45.59961 0,-91.19922 0,-136.79883 4.10891,-0.33086 8.06634,-0.53484 12.20051,-0.70491 13.01057,-0.56219 25.9524,-1.03204 38.98308,-1.12516 z" />
    </g>
  </g>
</svg>
