<?xml version="1.0" encoding="UTF-8" standalone="no"?>
<!-- Created with Inkscape (http://www.inkscape.org/) -->

<svg
   version="1.1"
   id="svg1"
   width="1130"
   height="1130"
   viewBox="0 0 1130 1130"
   sodipodi:docname="Screenshot from 2024-03-08 12-40-33.png"
   inkscape:version="0.0"
   inkscape:export-filename="../../Work/00_P4/Rust/roomor/icon/roomor.svg"
   inkscape:export-xdpi="96"
   inkscape:export-ydpi="96"
   xmlns:inkscape="http://www.inkscape.org/namespaces/inkscape"
   xmlns:sodipodi="http://sodipodi.sourceforge.net/DTD/sodipodi-0.dtd"
   xmlns="http://www.w3.org/2000/svg"
   xmlns:svg="http://www.w3.org/2000/svg">
  <defs
     id="defs1" />
  <sodipodi:namedview
     id="namedview1"
     pagecolor="#ffffff"
     bordercolor="#000000"
     borderopacity="0.25"
     inkscape:showpageshadow="2"
     inkscape:pageopacity="0.0"
     inkscape:pagecheckerboard="0"
     inkscape:deskcolor="#d1d1d1"
     showgrid="false"
     inkscape:zoom="0.8421417"
     inkscape:cx="647.75323"
     inkscape:cy="335.45424"
     inkscape:window-width="1920"
     inkscape:window-height="1012"
     inkscape:window-x="0"
     inkscape:window-y="32"
     inkscape:window-maximized="1"
     inkscape:current-layer="g1" />
  <g
     inkscape:groupmode="layer"
     inkscape:label="Image"
     id="g1">
    <g
       id="g7"
       transform="translate(0,232.23499)">
      <path
         style="fill:#e0e0e0"
         d="M 61.333329,627.23187 C 32.844843,619.74998 8.5444599,595.41436 2.04992,567.8625 0.29632441,560.4232 0.03941623,527.98389 0.03941623,313.99999 0.03941623,41.677079 -0.5813405,60.446917 9.0302113,42.145077 18.370675,24.35943 34.763365,10.172383 54.071913,3.1637572 L 62.787966,0 H 564.66663 1066.5453 l 8.716,3.1637572 c 25.8595,9.3864808 45.2841,30.8254758 52.0519,57.4497058 1.7729,6.974562 2.0201,42.250147 2.0201,288.333327 v 280.38652 l -530.33334,-0.0878 C 141.12677,629.16981 67.664699,628.89467 61.333329,627.23187 Z"
         id="path13" />
      <path
         style="fill:#afafaf"
         d="M 61.333329,627.23187 C 38.439847,621.21939 18.173872,604.6961 8.3089846,583.99998 5.3378415,577.76665 2.2528523,569.48712 1.4534531,565.60102 c -2.04768171,-9.95433 -2.04768171,-493.247727 0,-503.202061 C 3.9626653,50.201002 12.559463,34.201148 21.923292,24.301702 31.431711,14.249394 41.168305,7.8475151 54.071913,3.1637572 L 62.787966,0 H 564.66663 1066.5453 l 8.716,3.1637572 c 12.4568,4.521554 22.4616,10.9744118 31.2718,20.1695758 8.7112,9.09169 13.7393,17.117337 18.6954,29.840572 l 3.4381,8.826093 0.3514,283.666662 0.3515,283.66665 -530.35143,-0.0878 C 141.1291,629.16981 67.664701,628.89467 61.333329,627.23187 Z M 1118.6434,346.33332 c -0.02,-231.17293 -0.3117,-273.695045 -1.9324,-281.343015 -5.5593,-26.234552 -27.5382,-48.155282 -53.8817,-53.739167 C 1049.4331,8.4116334 79.728041,8.4483551 66.323635,11.288874 40.444519,16.772902 18.852173,38.116209 12.674091,64.319641 c -2.9640599,12.571629 -2.9640599,486.789069 0,499.360699 6.102567,25.88315 27.712839,47.47066 53.026899,52.97105 6.89062,1.49723 96.94172,1.82125 530.6323,1.90926 l 522.33331,0.106 z M 59.999996,303.52619 V 124.38574 L 70.333328,122.213 c 38.698902,-8.13701 94.994912,-9.74408 129.666662,-3.70157 56.80181,9.8993 92.25018,37.57767 103.5106,80.8219 3.33835,12.8205 3.39191,46.81939 0.0935,59.33333 -4.98714,18.92071 -16.84776,37.59274 -31.60408,49.75394 -7.36513,6.06986 -23.37866,14.47977 -33.66666,17.68089 -4.21667,1.31202 -7.66667,2.85065 -7.66667,3.41918 0,0.56853 4.39552,7.80896 9.76783,16.08984 24.72898,38.1173 49.80287,82.0304 65.8036,115.245 5.36904,11.14515 9.7619,20.61204 9.7619,21.03753 0,0.42548 -8.85,0.73423 -19.66667,0.6861 l -19.66666,-0.0875 -15.6513,-31.57916 C 239.78343,408.07349 207.10394,352.95746 194.38637,338.5385 l -3.05305,-3.4615 -47,0.61223 -46.999994,0.61223 v 73.1826 73.18259 H 78.666661 59.999996 Z m 140.666654,-2.72062 c 44.83615,-8.25627 64.49615,-28.08036 66.91378,-67.47224 1.54091,-25.10687 -4.5758,-43.23535 -19.68642,-58.34597 -22.11921,-22.11921 -60.76236,-30.943 -118.99525,-27.17141 -14.23743,0.92212 -27.16406,2.01074 -28.72584,2.41916 l -2.839594,0.74257 v 76.66332 76.66333 l 45.666664,-0.64452 c 34.52272,-0.48724 48.595,-1.18375 57.66666,-2.85424 z m 173.37179,172.19441 c 0.36912,-5.31666 1.58844,-27.66666 2.70961,-49.66666 4.92575,-96.65468 12.24287,-200.24941 18.97651,-268.66666 L 399.3333,118 l 15.53173,-0.37448 15.53173,-0.37448 8.60886,15.04114 c 28.11594,49.12335 71.78744,138.26669 112.37102,229.37447 5.79821,13.01667 10.86046,23.65224 11.24943,23.63459 0.38897,-0.0176 4.57248,-8.86764 9.29669,-19.66666 30.53348,-69.79626 86.98439,-185.78495 110.46374,-226.96792 L 694.16904,118 710.3822,117.62591 c 15.93571,-0.36768 16.22433,-0.32205 16.86633,2.66667 1.81443,8.44684 11.02847,114.42645 14.69667,169.04074 2.75727,41.05196 7.03861,114.67346 8.68422,149.33333 0.74859,15.76667 1.65399,32.11667 2.01202,36.33333 l 0.65095,7.66667 h -18.64622 -18.64622 l -0.008,-7.66667 c -0.008,-7.98622 -2.92434,-77.47394 -5.3299,-126.99999 -3.31855,-68.32259 -9.7537,-156.10399 -11.92492,-162.66666 -0.95588,-2.88924 -3.94997,2.43993 -22.47325,40 -34.96392,70.89715 -94.93082,199.72583 -94.93082,203.94271 0,0.89358 -6.16323,1.39061 -17.24348,1.39061 -16.62445,0 -17.27709,-0.1059 -18.17976,-2.94996 -5.56488,-17.53337 -113.78702,-245.05003 -116.56218,-245.05003 -0.87865,0 -4.13047,34.89861 -7.3301,78.66666 -3.09077,42.27901 -10.0178,185.25345 -10.0178,206.7682 0,5.69087 -0.36419,11.2961 -0.80932,12.45608 -0.6842,1.78301 -3.67034,2.10905 -19.31632,2.10905 h -18.50701 z m 436.02616,-5.12891 c 16.15901,-32.22016 45.18375,-77.82867 74.29766,-116.74888 l 17.99728,-24.05921 -12.1798,-4.96877 c -32.62504,-13.30944 -53.64314,-35.37278 -61.69289,-64.76088 -3.42677,-12.51049 -3.43271,-46.18062 -0.0106,-60 10.19646,-41.17584 40.3345,-66.8691 90.75939,-77.37412 37.29974,-7.77066 96.82386,-6.81401 139.76426,2.24624 l 10.3334,2.18029 v 179.14045 179.14046 h -18.6667 -18.6667 v -73.33333 -73.33333 l -36.99998,-0.009 c -20.35,-0.005 -40.9,-0.36997 -45.66667,-0.81056 l -8.66666,-0.80108 -16.62817,22.47722 c -29.68882,40.13205 -62.49064,90.50369 -76.06338,116.80563 l -4.64178,8.99507 -20.34447,0.005 -20.34447,0.005 z m 221.9353,-240.4318 v -76.56073 l -3.6666,-0.72796 c -2.0167,-0.40038 -13.2667,-1.42722 -25,-2.28186 -35.47672,-2.58407 -70.56544,0.38991 -89.8259,7.61328 -25.35343,9.50845 -42.49022,28.28437 -47.53163,52.078 -3.85213,18.18062 -1.68709,42.62304 4.97176,56.12928 5.00953,10.1609 17.00442,21.91655 28.01809,27.45926 20.12162,10.12636 37.05364,12.40798 94.03431,12.67125 l 38.99997,0.1802 z"
         id="path12" />
      <path
         style="fill:#8f8f8f"
         d="M 60.268947,626.6371 C 45.964616,622.8896 35.379106,616.69483 23.865936,605.33362 16.312683,597.88006 12.497786,592.78665 8.88598,585.33331 -0.66701737,565.61972 0,585.98709 0,313.99999 0,42.012886 -0.66701737,62.380256 8.88598,42.666665 17.61143,24.660803 37.61236,7.8929298 57.241998,2.1271724 63.815073,0.19648164 110.68463,0 564.66663,0 c 453.98197,0 500.85157,0.19648164 507.42467,2.1271724 12.4576,3.6591583 22.7263,9.9973206 33.2552,20.5262276 11.5407,11.540706 17.5319,21.868302 21.3528,36.807946 2.582,10.095233 2.634,15.822241 2.634,290.085264 v 279.7867 l -529.66668,-0.0734 C 82.530174,629.18822 69.76979,629.12617 60.268947,626.6371 Z M 1118.3488,342.33332 1117.9999,65.999998 1114.9244,57.484572 C 1107.2912,36.349924 1091.65,20.708701 1070.5153,13.075511 L 1061.9999,9.9999997 568.24581,9.6578323 C 37.621781,9.2901144 67.745428,8.9357657 51.999996,15.730505 36.171909,22.560913 21.006044,39.052398 14.354371,56.666665 l -3.021038,8 V 313.99999 563.33332 l 3.021038,7.99999 c 6.650413,17.61093 21.803842,34.09105 37.645625,40.94153 15.020621,6.49537 -13.809662,6.16232 543.682164,6.28072 l 523.01554,0.11109 z M 59.999996,303.52619 V 124.38574 l 10.497655,-2.26816 c 27.518645,-5.94575 80.829209,-9.00487 108.835669,-6.24532 47.08817,4.63973 79.12054,17.90474 101.74971,42.13584 19.95946,21.3724 28.88739,53.6471 24.34058,87.99189 -3.15132,23.80385 -10.75087,39.32399 -27.42363,56.00577 -12.78335,12.79027 -22.00352,18.02034 -47.04604,26.68651 -1.13791,0.39378 1.36216,5.18743 7.44941,14.28354 26.10069,39.00194 69.08124,115.99051 76.68282,137.35751 0.76591,2.15285 -0.65979,2.33333 -18.43208,2.33333 H 277.3919 l -15.97332,-31.66666 c -22.65413,-44.9112 -45.06607,-83.16425 -63.21813,-107.9017 l -6.46621,-8.81208 -12.07196,0.85689 c -6.63958,0.47129 -27.87978,0.85689 -47.20046,0.85689 H 97.333326 v 73.33333 73.33333 H 78.666661 59.999996 Z m 126.101754,-0.94154 c 39.89631,-3.87692 63.02767,-15.81704 74.49956,-38.45572 9.5894,-18.92377 9.72018,-53.07603 0.27461,-71.71595 -14.54254,-28.69833 -45.22962,-43.15229 -96.19704,-45.30988 -16.70684,-0.70724 -56.42585,1.22535 -64.34555,3.13085 l -3.000004,0.7218 v 76.52212 76.52212 h 37.101764 c 20.40596,0 43.65596,-0.6369 51.66666,-1.41534 z m 187.9234,172.41533 c 0.35802,-4.21666 1.26343,-20.56666 2.01201,-36.33333 1.64562,-34.65987 5.92695,-108.28137 8.68423,-149.33333 3.65591,-54.4314 12.87944,-160.56847 14.68644,-168.99999 0.62048,-2.89518 1.16691,-3 15.63937,-3 h 14.99642 l 4.16968,7 c 25.06837,42.08439 71.46477,136.11163 115.7929,234.66666 6.51432,14.48333 12.17787,26.3288 12.58566,26.32326 0.40779,-0.006 5.20016,-10.05554 10.64971,-22.33334 C 612.39863,274.76945 660.86999,175.89213 686.96698,131 l 7.9448,-13.66667 h 15.85202 c 15.35735,0 15.87232,0.0936 16.50298,3 0.84767,3.90655 6.6254,66.03363 10.01283,107.66666 4.42294,54.35984 10.27606,147.29943 13.35127,212 0.74939,15.76666 1.62064,31.81666 1.93612,35.66666 l 0.57361,7 h -18.57033 -18.57033 l -0.004,-8.33333 c -0.01,-21.17036 -6.72398,-161.19565 -10.02181,-209 -2.33086,-33.78744 -5.70191,-73.40779 -6.80671,-79.99999 -0.73239,-4.37016 -1.92814,-2.3793 -18.81927,31.33333 -25.07073,50.03809 -85.86305,179.51266 -98.13198,208.99999 l -2.08037,5 h -16.7347 c -9.41996,0 -16.7347,-0.54165 -16.7347,-1.23918 0,-5.69508 -109.3701,-237.06982 -116.22168,-245.8694 -2.06185,-2.64806 -2.50351,0.99291 -7.08925,58.44192 -3.45449,43.27702 -8.66302,143.50738 -10.70492,206 -0.41932,12.83333 -1.07406,25.88333 -1.45497,28.99999 l -0.69257,5.66667 H 391.9385 373.37397 Z m 429.97479,6.11099 c 0,-2.5259 16.39284,-32.93284 28.80702,-53.43388 15.04891,-24.85211 35.91621,-55.61465 54.04772,-79.6771 8.01242,-10.63333 14.46765,-19.93333 14.34495,-20.66667 -0.1227,-0.73333 -3.63368,-2.56828 -7.80219,-4.07766 -26.03595,-9.42739 -48.87735,-28.60955 -58.7837,-49.36644 -12.90146,-27.03258 -11.98579,-70.65644 2.06869,-98.55589 19.15133,-38.01716 61.81509,-57.89154 129.3175,-60.24093 31.29374,-1.08917 69.91907,2.04002 96.33337,7.80435 l 7,1.52759 V 303.5455 482.66665 h -18.6667 -18.6667 v -73.33333 -73.33333 h -35.7988 c -19.68936,0 -40.23936,-0.36388 -45.66666,-0.80862 l -9.86784,-0.80862 -18.47084,24.88085 c -29.11929,39.22467 -57.20068,82.4125 -75.8621,116.67227 l -3.66628,6.73078 h -19.33372 c -13.84243,0 -19.33372,-0.44185 -19.33372,-1.55568 z M 1031.9999,227.39374 V 150.7875 l -4.3333,-0.73756 c -2.3833,-0.40565 -12.0705,-1.33284 -21.527,-2.06042 -58.81048,-4.52483 -97.31275,3.04131 -119.36334,23.45626 -15.58514,14.42909 -21.33853,27.60454 -22.3669,51.22088 -1.12865,25.91946 4.23014,43.24826 17.46784,56.48596 12.52064,12.52064 33.72863,20.92315 58.92584,23.34616 6.52496,0.62745 29.71356,1.2219 51.53022,1.32101 l 39.66664,0.1802 z"
         id="path11" />
      <path
         style="fill:#6d6d6d"
         d="M 62.890321,627.28868 C 48.566769,624.17963 35.287891,616.69828 23.986732,605.37032 12.447509,593.80374 6.4496467,583.45796 2.633926,568.53863 0.05798004,558.46678 0,552.86368 0,313.99999 0,75.136302 0.05798004,69.533198 2.633926,59.461346 6.3431762,44.958316 12.499878,34.182867 23.333332,23.233284 33.500487,12.957141 42.772563,7.0835776 55.624602,2.7777991 L 63.915874,0 H 564.66663 1065.4174 l 8.2912,2.7777991 c 26.8881,9.0082239 47.8893,32.2635529 53.6374,59.3943369 1.6632,7.850374 1.9443,49.081644 1.9641,288.161184 l 0.023,278.99999 -529.00001,-0.106 C 156.86027,629.13845 69.968291,628.82502 62.890321,627.28868 Z M 1118.3518,341.66666 l -0.3519,-276.999995 -3.451,-8.86181 c -7.745,-19.88819 -24.2203,-36.01564 -43.6522,-42.7305 l -8.8968,-3.0743553 H 564.66663 67.333328 L 58.521914,13.04595 C 35.15723,21.122708 17.014604,41.465893 12.129299,65.065626 10.025947,75.226414 10.068554,553.0645 12.173692,562.93435 c 5.818996,27.28212 27.710428,48.86001 55.159636,54.36961 2.933334,0.58878 240.691652,1.13625 528.351832,1.2166 l 523.01854,0.14609 z M 59.999996,304.07868 c 0,-98.22338 0.487093,-178.88901 1.082429,-179.25695 2.335353,-1.44333 28.384466,-6.12911 42.917565,-7.72013 8.43334,-0.92324 29.73333,-1.64765 47.33333,-1.60981 26.66482,0.0573 34.58103,0.54096 47.48083,2.90075 45.20908,8.2702 76.63586,26.59916 93.66108,54.62568 14.33245,23.59377 18.1643,63.89779 8.77672,92.3151 -5.9843,18.11521 -18.51947,35.06106 -34.22614,46.2691 -8.36894,5.97195 -30.63885,16.27365 -35.35916,16.35658 -1.28333,0.0225 -2.33333,0.31001 -2.33333,0.6388 0,0.3288 4.99194,8.2788 11.09321,17.66667 28.21582,43.41501 59.90669,100.07419 72.80725,130.17 l 2.67143,6.23218 h -19.19962 -19.19961 l -13.47529,-27.14183 c -17.4491,-35.14587 -37.67289,-70.48349 -56.60404,-98.9059 l -15.12925,-22.7144 -10.48204,0.95287 c -5.76512,0.52408 -27.13204,0.99556 -47.48204,1.04773 l -36.999994,0.0949 v 73.33333 73.33333 H 78.666661 59.999996 Z M 202.66665,300.7153 c 44.90186,-8.23159 65.2292,-31.10859 65.31018,-73.50202 0.0271,-14.19319 -3.54477,-29.9421 -8.86758,-39.09839 -1.95511,-3.36319 -7.33006,-9.83591 -11.94433,-14.38382 -18.28501,-18.02204 -49.81558,-27.06441 -94.37309,-27.06441 -14.75989,0 -46.27293,2.03864 -52.4585,3.39363 l -3.000004,0.65718 v 76.78176 76.78176 l 46.333334,-0.62179 c 36.19309,-0.48571 49.10548,-1.13 58.99999,-2.9439 z M 374.0477,476.33332 c 0.32381,-3.48334 1.21725,-19.53333 1.98541,-35.66667 3.18442,-66.88087 8.89889,-157.89855 13.3521,-212.66666 C 392.72884,186.87815 398.47912,125.83374 399.46444,121 l 0.74741,-3.66667 h 15.01232 15.01232 l 12.95478,23 c 23.95713,42.53366 65.15375,126.8591 104.26406,213.4183 8.22189,18.19673 15.25016,32.59673 15.61839,31.99999 0.36822,-0.59673 4.25372,-9.18497 8.63444,-19.08497 38.21772,-86.3683 87.47256,-187.1078 114.57323,-234.33332 l 8.60785,-15 h 15.82827 15.82827 l 0.71994,4.33333 c 1.06733,6.4242 7.01717,70.25488 10.03592,107.66667 4.47059,55.40469 10.14819,145.93798 13.33691,212.66666 0.77095,16.13333 1.61896,31.88333 1.88445,34.99999 l 0.48271,5.66667 H 734.7887 716.57169 l -2.35238,-57.66666 c -4.81702,-118.08516 -12.80108,-240.02616 -15.91986,-243.14494 -1.90026,-1.90026 -96.53328,196.94191 -116.98673,245.8116 -1.20727,2.88454 -1.89816,3 -17.95084,3 -10.75042,0 -16.69525,-0.49753 -16.69525,-1.39725 0,-6.16767 -112.77823,-244.4542 -116.90419,-247.00419 -3.47945,-2.15041 -13.46123,151.39385 -17.10183,263.06811 -0.41837,12.83333 -1.08134,26.48333 -1.47326,30.33333 l -0.7126,7 h -18.5079 -18.5079 z m 429.95224,5.31544 c 0,-0.55983 3.54531,-7.99521 7.87847,-16.52306 15.89696,-31.28598 45.45365,-77.53666 72.89156,-114.06168 9.21468,-12.26647 16.86106,-22.84236 16.99196,-23.50198 0.1309,-0.65962 -2.94024,-2.30399 -6.82475,-3.65415 -20.63759,-7.17312 -43.08286,-23.50977 -53.68187,-39.07202 -13.93749,-20.46406 -19.11202,-50.19385 -13.91921,-79.97163 7.49924,-43.00382 35.66246,-70.68967 84.1771,-82.75026 23.25806,-5.78188 32.7242,-6.722 67.1534,-6.66925 34.1005,0.0522 60.2322,2.32132 80,6.94659 l 10,2.3398 0.3382,178.96776 0.3381,178.96777 h -18.6715 -18.6715 v -73.33333 -73.33333 l -34.99997,-0.008 c -19.25,-0.004 -39.84069,-0.3849 -45.75709,-0.84556 l -10.75708,-0.83757 -17.20427,23.17889 c -28.75961,38.74714 -57.69883,83.09242 -75.81699,116.17889 l -4.9284,9 h -19.26808 c -10.59744,0 -19.26808,-0.45805 -19.26808,-1.01789 z M 1031.9999,227.35873 v -76.64126 l -3,-0.65718 c -6.1855,-1.35499 -37.69859,-3.39363 -52.45848,-3.39363 -56.52412,0 -90.1763,14.31308 -105.70302,44.95803 -6.67048,13.16546 -8.86235,39.27232 -4.87647,58.08249 6.40573,30.22994 31.96928,48.45154 74.038,52.774 6.23334,0.64046 29.48333,1.2442 51.66667,1.34164 l 40.3333,0.17717 z"
         id="path10" />
      <path
         style="fill:#4f4f4f"
         d="M 65.986536,627.97803 C 36.951447,622.20493 13.03527,601.09572 3.8877598,573.16759 L 0.66666662,563.33332 V 313.99999 64.666665 L 3.8877598,54.832391 C 11.793226,30.696323 30.940005,11.271409 54.772753,3.2082189 L 64.255435,0 H 564.22592 1064.1964 l 10.0055,3.3587462 c 24.2707,8.1473918 41.9061,25.7756958 50.7126,50.6920948 l 3.7521,10.615824 0.3485,282.333325 0.3486,282.33332 -529.01519,-0.14608 C 309.39016,629.10688 68.927272,628.56274 65.986536,627.97803 Z M 1118.6666,345.39895 c 0,-193.10052 -0.4291,-275.340504 -1.4626,-280.333324 -5.4577,-26.364697 -27.905,-48.811988 -54.2697,-54.26966 -10.0288,-2.0760234 -986.506574,-2.0760234 -996.535343,0 -25.44137,5.266537 -47.072154,26.000324 -53.620034,51.396491 -1.889855,7.329865 -2.112257,33.843004 -2.112257,251.807533 0,217.96453 0.222402,244.47767 2.112257,251.80753 6.379899,24.74465 26.835837,44.94654 51.583941,50.94331 5.560802,1.34745 112.873496,1.71196 530.637096,1.80242 l 523.66664,0.1134 z M 60.328499,303.75376 l 0.338163,-178.9129 6.666666,-1.7092 c 11.990119,-3.07402 33.401832,-5.73669 59.255602,-7.36877 63.60877,-4.01545 113.46189,7.34383 144.4657,32.91722 20.75016,17.11569 31.23537,37.62525 34.46673,67.41849 5.59433,51.57992 -19.08725,92.94185 -64.85471,108.68496 -5.86667,2.01802 -10.8952,3.84581 -11.17452,4.06174 -0.27932,0.21594 5.47843,9.56409 12.79499,20.77365 26.78005,41.02919 55.88778,93.07384 70.37193,125.82507 l 3.19418,7.22263 H 296.67532 277.4974 l -12.62916,-25.66666 c -20.46688,-41.5955 -46.63706,-86.63941 -65.79985,-113.2542 -5.56845,-7.7339 -8.11549,-10.27122 -9.65013,-9.61329 -1.14672,0.49161 -22.63494,1.18962 -47.7516,1.55113 l -45.666667,0.6573 v 73.16286 73.16286 H 77.995164 59.990335 Z m 128.393081,-1.21492 c 46.06201,-4.63587 70.42581,-21.63169 77.26001,-53.89544 2.34046,-11.04915 2.60655,-31.02509 0.54495,-40.91111 -6.98536,-33.49695 -36.31122,-54.20263 -84.52655,-59.68042 -19.80784,-2.25038 -68.99151,-1.06025 -82.999997,2.00842 l -3,0.65718 v 76.64126 76.64126 h 39.101757 c 21.50597,0 45.63489,-0.65752 53.61983,-1.46115 z m 186.2414,159.79452 c 6.25705,-132.1135 20.86159,-330.47244 25.18038,-342.00003 1.06782,-2.8502 1.8255,-3 15.1735,-3 h 14.04957 l 4.4477,7 c 19.63545,30.90318 72.82236,138.52925 114.93869,232.58355 7.28593,16.27095 13.65877,29.17095 14.16189,28.66666 0.50311,-0.50429 6.28944,-12.91689 12.85852,-27.58355 45.87511,-102.42452 106.71441,-224.67625 118.60798,-238.33333 1.7003,-1.9524 4.37986,-2.33333 16.41337,-2.33333 9.04228,0 14.71867,0.54584 15.29,1.47027 2.55704,4.13737 12.51221,120.74827 18.54224,217.19639 3.15727,50.4993 7.37313,129.82408 7.37313,138.73132 v 8.01274 l -17.66667,-0.37203 -17.66666,-0.37204 -0.91618,-24.66666 c -4.68506,-126.13781 -13.52905,-267.66101 -17.16173,-274.62544 -0.69008,-1.32297 -7.7263,11.6606 -21.67731,40 -30.6154,62.19065 -90.90094,191.32668 -96.01291,205.66669 -0.75898,2.12908 -2.51573,2.33585 -16.99222,2 L 547.76054,429.99999 537.19968,406.2047 C 519.74348,366.87316 466.24652,253.79434 446.89949,215.33333 l -18.10907,-36 -1.00283,9.33333 c -5.24697,48.83343 -11.5569,153.80311 -15.10813,251.33333 -0.41388,11.36666 -1.08994,25.61666 -1.50236,31.66666 l -0.74985,11 -18.21364,4e-5 -18.21364,5e-5 z m 429.03696,19.64442 c 0,-0.37889 3.33411,-7.3369 7.40913,-15.46226 17.69758,-35.28797 50.71843,-86.21149 82.3294,-126.96532 5.02682,-6.48072 8.78882,-12.13397 8.36001,-12.56277 -0.4288,-0.42881 -6.07952,-2.96592 -12.55714,-5.63803 -23.03767,-9.50336 -43.66432,-26.66456 -52.68739,-43.83549 -7.9444,-15.11822 -10.56969,-27.09151 -10.71037,-48.84725 -0.14771,-22.84306 2.30029,-34.95681 10.50837,-52 18.48083,-38.37342 60.15429,-58.54839 126.94971,-61.45895 29.50263,-1.28555 77.57724,2.58587 98.39824,7.92395 l 6.6667,1.7092 0.3382,178.9129 0.3381,178.91289 h -18.6715 -18.6715 v -73.33333 -73.33333 h -33.79514 c -18.58734,0 -39.16995,-0.38151 -45.73914,-0.84781 l -11.94397,-0.84781 -18.7234,25.18114 c -30.09133,40.4699 -55.75849,79.66651 -73.02315,111.51447 l -6.32445,11.66667 H 823.2253 c -10.57395,0 -19.22536,-0.30999 -19.22536,-0.68887 z M 1031.6774,226.99999 1031.3333,150 l -8,-0.88115 c -4.4,-0.48464 -19.4,-1.3216 -33.33337,-1.85992 -41.33408,-1.59697 -66.84609,2.16351 -87.46965,12.89307 -18.84528,9.80439 -31.94392,26.07313 -36.4773,45.30542 -2.5745,10.92201 -2.59659,34.06997 -0.0429,44.90145 7.0356,29.84092 32.24636,47.92304 72.65647,52.11196 6.23333,0.64615 29.7882,1.25455 52.34416,1.35199 l 41.01089,0.17717 z"
         id="path9" />
      <path
         style="fill:#2e2e2e"
         d="M 64.096014,627.26265 C 33.233209,620.5696 9.0957905,596.59288 2.1577851,565.73677 0.21277688,557.08654 0,532.26304 0,313.99999 0,95.736936 0.21277688,70.913441 2.1577851,62.263205 8.6927529,33.199568 29.822478,10.685697 58.575331,2.1499137 65.18073,0.1889862 109.66822,0 564.66663,0 c 452.88987,0 499.51647,0.19609731 506.09127,2.1284658 21.1963,6.2297159 39.6975,21.5904132 49.1832,40.8346492 10.016,20.32019 9.3432,-1.800447 9.369,308.036875 l 0.023,278.33332 -528.33334,-0.106 C 154.50262,629.13773 71.339115,628.83342 64.096014,627.26265 Z M 1118.6666,344.52578 c 0,-245.819594 -0.2182,-274.98722 -2.1123,-282.333323 -6.3213,-24.517419 -26.2294,-44.425553 -50.7468,-50.746867 -7.4037,-1.9088816 -55.6789,-2.112257 -501.38654,-2.112257 -438.55844,0 -494.062343,0.2261655 -501.032226,2.04159 -24.262741,6.319641 -44.360838,26.417739 -50.680479,50.68048 -1.797254,6.900125 -2.041589,37.052582 -2.041589,251.944587 0,269.17397 -0.56822,250.93291 8.34498,267.89138 5.459734,10.38782 18.060225,22.97981 28.471452,28.45223 16.809031,8.83529 -29.436522,8.13886 546.850192,8.2353 l 524.33331,0.0878 z M 60.328499,303.69781 l 0.338163,-178.96883 7.333333,-1.66095 c 14.275557,-3.23332 34.305355,-5.67772 59.015915,-7.2022 62.62592,-3.8636 111.7423,7.19339 143.33488,32.2673 16.21748,12.87124 28.70278,33.21811 33.05392,53.86686 3.26762,15.5068 3.00433,43.46557 -0.53557,56.87215 -8.42243,31.89815 -30.36175,54.6371 -64.20249,66.54249 -4.76667,1.67695 -8.88381,3.21182 -9.14921,3.41083 -0.2654,0.19901 5.79842,10.14469 13.47515,22.10151 28.23299,43.97404 52.90176,87.96878 68.44891,122.07301 l 4.40676,9.66667 H 296.80298 277.7577 l -14.8163,-29.66666 c -19.276,-38.59636 -34.54576,-65.31191 -54.27475,-94.95763 -14.18254,-21.31138 -16.37863,-24.00367 -19.33333,-23.70167 -1.83333,0.18739 -23.58333,0.72158 -48.33333,1.18711 l -44.999997,0.8464 v 73.14623 73.14622 H 77.995164 59.990335 Z m 129.772071,-1.06803 c 37.2507,-4.0363 60.52575,-16.71689 70.90446,-38.62979 5.11531,-10.8001 7.00055,-20.86649 6.97524,-37.24488 -0.0365,-23.63104 -5.46878,-37.90854 -19.83419,-52.12975 -14.69979,-14.55222 -32.82178,-22.26147 -61.01832,-25.95772 -17.77653,-2.3303 -51.28103,-2.42035 -74.4611,-0.20014 l -16,1.5325 -0.346159,75.99999 c -0.190388,41.8 -0.02228,76.84626 0.373573,77.88058 0.607331,1.58689 6.923946,1.74803 40.446746,1.03181 21.84985,-0.46682 45.68174,-1.49399 52.95975,-2.2826 z M 375.1687,461.66665 c 2.36317,-54.83121 9.69808,-173.62455 14.22195,-230.33332 3.10189,-38.8836 9.01296,-102.05516 10.14077,-108.3743 l 0.7807,-4.37429 15.2749,0.37429 15.27491,0.3743 8.07297,14 c 26.5118,45.97627 85.02715,166.02911 117.79154,241.66666 2.77954,6.41666 5.40317,11.65568 5.83029,11.64225 0.42711,-0.0134 3.71057,-6.76342 7.29657,-15 C 599.22345,304.18291 659.10782,180.79864 682.28052,140 l 11.7382,-20.66667 16.19999,-0.37338 16.19998,-0.37337 0.77992,5.04004 c 1.40623,9.08741 7.38272,74.84145 10.75915,118.37337 4.96904,64.06517 14.01533,215.09964 14.03553,234.33333 l 0.007,6.33333 h -17.25164 -17.25163 l -0.68876,-5.66667 c -0.37881,-3.11666 -1.0266,-16.16666 -1.43952,-28.99999 -3.45284,-107.31185 -13.64866,-266.66666 -17.06183,-266.66666 -2.4038,0 -82.60684,167.12948 -108.63294,226.37257 l -10.12138,23.03924 -15.91147,-0.37258 -15.91146,-0.37257 -10.25418,-23.33334 C 520.53411,368.11741 475.56828,272.98231 451.45242,224.66666 l -22.6273,-45.33333 -1.60284,14.66666 c -4.47977,40.99177 -9.32478,118.31251 -13.15885,210 -1.1193,26.76666 -2.40066,55.41666 -2.84747,63.66666 l -0.81239,15 h -18.06998 -18.06997 z m 428.83124,20.23244 c 0,-1.78891 16.65595,-33.15148 25.43813,-47.8991 14.98987,-25.172 38.80193,-60.5552 56.7568,-84.33699 9.05945,-11.99954 16.47173,-22.38261 16.47173,-23.07351 0,-0.69089 -0.64767,-1.25617 -1.43926,-1.25617 -3.03263,0 -19.63296,-7.27473 -28.56074,-12.51612 -11.6346,-6.83054 -27.91581,-22.22157 -33.76078,-31.9149 -16.5957,-27.52239 -17.45796,-74.80957 -1.92399,-105.51374 13.51227,-26.70811 40.58647,-45.37231 78.33722,-54.00349 19.9824,-4.5687 34.32692,-5.91976 62.68088,-5.90368 31.07367,0.0176 54.70537,1.97034 76.31617,6.30612 l 14.3505,2.87915 0.3382,179 0.3381,178.99999 h -18.0048 -18.0048 v -73.33333 -73.33333 l -31.6667,-0.006 c -17.41667,-0.003 -38.36162,-0.39186 -46.54435,-0.86339 l -14.87767,-0.85732 -17.76616,23.86338 c -28.80838,38.69523 -57.36938,82.49378 -74.48002,114.2158 l -5.56344,10.31425 h -19.21751 c -10.56963,0 -19.21751,-0.3454 -19.21751,-0.76756 z M 1032.6666,227.33333 V 150 l -18,-1.72959 c -23.70129,-2.2774 -67.28164,-1.38646 -82.66667,1.69001 -32.92091,6.58304 -56.47575,24.71078 -64.73639,49.82093 -3.54687,10.78155 -4.30443,39.42443 -1.34793,50.96477 7.14553,27.89174 27.79213,44.38314 63.41766,50.65463 12.22274,2.15169 43.96741,3.57534 76.00003,3.40838 l 27.3333,-0.14247 z"
         id="path8" />
      <path
         style="fill:#000000"
         d="M 69.999995,628.40323 C 37.193184,624.05201 8.8699527,597.5049 1.9991359,564.66665 -0.93517468,550.64246 -0.93517468,77.35752 1.9991359,63.333331 8.0224659,34.545541 30.308461,10.436261 58.575331,2.1284658 65.151117,0.19580451 111.76103,0.00316661 565.24196,0.03442221 l 499.42464,0.0344222 8.7437,2.98086089 c 24.4922,8.3497157 43.6816,27.7807967 52.2916,52.9502927 l 2.9647,8.666667 0.3545,282.333325 0.3545,282.33332 -527.68782,-0.19977 C 311.4595,629.02366 72.199995,628.69502 69.999995,628.40323 Z M 1118.6666,344.28012 c 0,-242.08183 -0.2404,-275.309349 -2.0416,-282.224717 -6.3196,-24.262741 -26.4177,-44.360839 -50.6805,-50.68048 -6.9699,-1.8154334 -62.4988,-2.04159 -501.27787,-2.04159 -432.70476,0 -494.37794,0.2443793 -501.062375,1.985454 C 39.075743,17.707652 20.2456,36.217286 12.81658,61.242 c -1.94366,6.547232 -2.149914,30.795843 -2.149914,252.75799 0,221.96215 0.206254,246.21076 2.149914,252.75799 7.342552,24.73345 26.10639,43.36296 50.216095,49.85661 5.931178,1.59749 84.943305,1.88961 531.300615,1.96431 l 524.33331,0.0878 z M 59.999996,304.05138 V 125.43611 l 4.999999,-1.2828 c 34.86681,-8.94548 100.564285,-11.27479 136.220685,-4.82973 35.25119,6.37182 66.95322,22.53493 82.39714,42.00975 8.27073,10.4294 12.99796,19.08912 17.10447,31.33333 4.85757,14.48362 6.21585,46.54494 2.66192,62.83298 -7.15974,32.81388 -28.81705,56.68471 -62.29246,68.65917 -6.86235,2.45473 -11.64561,4.87868 -11.31701,5.73499 0.31304,0.81577 7.63713,12.57338 16.27577,26.12803 8.63864,13.55465 22.23477,36.04482 30.21363,49.97816 13.71992,23.95886 35.82784,67.14139 37.71471,73.66666 l 0.86749,3 h -18.43828 -18.43829 l -13.78152,-27.66666 c -21.49164,-43.1449 -45.30853,-84.09371 -64.56049,-111 -6.65986,-9.30774 -7.47152,-9.98319 -11.72481,-9.75712 -2.5133,0.13359 -24.21963,0.67627 -48.23629,1.20597 l -43.666667,0.96308 v 73.12736 73.12737 H 77.999994 59.999996 Z m 131.999994,-1.34559 c 42.90687,-5.07117 66.09805,-21.3575 73.9903,-51.96073 2.99105,-11.5982 2.98788,-36.01211 -0.006,-46.38438 -7.40464,-25.65313 -28.38038,-44.45006 -58.24728,-52.19694 -17.86394,-4.63355 -35.28225,-5.93314 -67.07033,-5.00414 -16.13334,0.47149 -32.78333,1.22776 -37,1.6806 l -7.666667,0.82334 v 78.01428 78.01427 l 41.666667,-0.74461 c 22.91666,-0.40954 47.36666,-1.4183 54.33333,-2.24169 z m 182.6733,174.96086 c 0.008,-6.2808 4.65552,-92.71131 7.36617,-136.99999 C 386.91522,261.00259 395.04309,160.37676 399.45955,125 l 0.79066,-6.33334 h 15.05484 15.05483 L 440.80628,137 c 25.31043,44.41959 67.63671,131.02671 107.99279,220.9725 l 13.74692,30.63919 2.89738,-6.63919 C 604.8957,291.56954 662.46748,173.61526 689.89177,127 l 4.90259,-8.33334 h 15.93613 c 8.76487,0 15.93612,0.33884 15.93612,0.75298 0,0.41413 1.48954,15.86413 3.31008,34.33333 7.63861,77.49295 12.87454,150.79859 19.35026,270.91368 1.46283,27.13334 2.66269,51.28333 2.66634,53.66667 l 0.007,4.33333 h -17.21364 -17.21364 l -0.75204,-11 c -0.41362,-6.05 -1.68644,-34.1 -2.82849,-62.33333 -3.58353,-88.59036 -7.0133,-146.10648 -12.16482,-203.99999 -2.10275,-23.63098 -2.51658,-26.46795 -3.67919,-25.22222 -4.68236,5.01709 -102.70028,211.31209 -115.10708,242.26198 l -3.35651,8.37311 -15.89043,-0.37311 -15.89044,-0.3731 -7.76218,-18 C 527.79314,383.36498 475.0802,271.47716 450.94217,222.66666 l -22.0888,-44.66667 -1.00784,7.36584 c -1.21292,8.86471 -5.92546,65.87932 -7.82198,94.63416 -2.29033,34.72578 -9.35691,185.32956 -9.35691,199.41547 v 3.25119 h -18 -18 z m 431.37685,0 c 10.33118,-24.76339 46.88481,-83.01545 79.47681,-126.6547 10.00653,-13.39829 17.80653,-24.57831 17.33334,-24.84449 -0.4732,-0.26618 -3.26035,-1.24563 -6.19369,-2.17655 -22.18182,-7.03961 -48.05636,-26.67276 -58.3895,-44.30493 -15.11543,-25.79254 -16.11316,-72.53124 -2.1745,-101.86533 5.60644,-11.79884 14.42011,-23.16058 24.11365,-31.08503 15.9518,-13.04057 42.81248,-23.859 69.78368,-28.10616 33.3186,-5.24667 96.87857,-3.07785 129.99997,4.43591 l 7.3334,1.66361 0.3381,178.96883 0.3382,178.96884 h -17.3382 -17.3381 v -73.33333 -73.33333 l -29,-0.13287 c -15.95004,-0.0731 -36.80004,-0.55166 -46.33337,-1.06352 -16.43463,-0.8824 -17.45269,-0.7891 -19.63541,1.79953 -6.8452,8.11817 -39.53974,53.61097 -51.79027,72.06352 -13.85351,20.86708 -31.01386,49.02808 -40.01501,65.66667 l -4.50817,8.33333 H 823.00761 803.96416 Z M 1033.0107,227.66666 1032.6666,150 l -6.6667,-0.97057 c -3.6666,-0.53381 -21.0666,-1.36047 -38.66664,-1.83703 -26.17727,-0.70881 -34.7031,-0.46703 -46.85546,1.32874 -26.89605,3.97446 -42.72614,10.92268 -56.47786,24.78954 -15.36104,15.48964 -20.47031,29.19162 -20.39286,54.68931 0.0741,24.39688 4.16323,36.50601 17.01543,50.38792 12.4859,13.48626 31.15921,21.31521 57.76624,24.21899 18.27004,1.99392 23.42471,2.20248 61.28859,2.47978 l 33.67736,0.24664 z"
         id="path7" />
    </g>
  </g>
</svg>
